Hubballi-Regular-wire-LatinOnly-Decomp-105.ufo
<glyph name="comma" format="1">
  <advance width="242"/>
  <unicode hex="002C"/>
  <outline>
    <contour>
      <point x="116" y="81" type="move"/>
      <point x="120" y="69"/>
      <point x="122" y="50"/>
      <point x="122" y="30" type="curve" smooth="yes"/>
      <point x="122" y="-18"/>
      <point x="105" y="-67"/>
      <point x="78" y="-103" type="curve"/>
    </contour>
  </outline>
</glyph>
<glyph name="period" format="1">
  <advance width="236"/>
  <unicode hex="002E"/>
  <outline>
    <contour>
      <point x="119" y="77" type="curve" smooth="yes"/>
      <point x="103" y="77"/>
      <point x="98" y="62"/>
      <point x="98" y="47" type="curve" smooth="yes"/>
      <point x="98" y="29"/>
      <point x="107" y="17"/>
      <point x="120" y="17" type="curve" smooth="yes"/>
      <point x="134" y="17"/>
      <point x="141" y="29"/>
      <point x="141" y="47" type="curve" smooth="yes"/>
      <point x="141" y="62"/>
      <point x="133" y="77"/>
    </contour>
  </outline>
</glyph>
<glyph name="one" format="1">
  <advance width="344"/>
  <unicode hex="0031"/>
  <outline>
    <contour>
      <point x="215" y="513" type="move"/>
      <point x="215" y="11" type="line"/>
    </contour>
    <contour>
      <point x="215" y="520" type="move"/>
      <point x="79" y="446" type="line"/>
    </contour>
  </outline>
</glyph>
<glyph name="two" format="1">
  <advance width="533"/>
  <unicode hex="0032"/>
  <outline>
    <contour>
      <point x="90" y="20" type="move"/>
      <point x="265" y="187" type="line" smooth="yes"/>
      <point x="379" y="296"/>
      <point x="415" y="345"/>
      <point x="415" y="410" type="curve" smooth="yes"/>
      <point x="415" y="471"/>
      <point x="368" y="529"/>
      <point x="271" y="529" type="curve" smooth="yes"/>
      <point x="216" y="529"/>
      <point x="162" y="514"/>
      <point x="112" y="483" type="curve"/>
    </contour>
    <contour>
      <point x="449" y="11" type="move"/>
      <point x="80" y="11" type="line"/>
    </contour>
  </outline>
</glyph>
<glyph name="three" format="1">
  <advance width="538"/>
  <unicode hex="0033"/>
  <outline>
    <contour>
      <point x="121" y="520" type="move"/>
      <point x="433" y="520" type="line"/>
    </contour>
    <contour>
      <point x="103" y="39" type="move"/>
      <point x="147" y="20"/>
      <point x="203" y="7"/>
      <point x="268" y="7" type="curve" smooth="yes"/>
      <point x="390" y="7"/>
      <point x="448" y="68"/>
      <point x="448" y="150" type="curve" smooth="yes"/>
      <point x="448" y="230"/>
      <point x="385" y="286"/>
      <point x="279" y="286" type="curve" smooth="yes"/>
      <point x="230" y="286"/>
      <point x="190" y="278"/>
      <point x="167" y="270" type="curve"/>
    </contour>
    <contour>
      <point x="423" y="512" type="move"/>
      <point x="172" y="275" type="line" smooth="yes"/>
    </contour>
  </outline>
</glyph>
<glyph name="five" format="1">
  <advance width="547"/>
  <unicode hex="0035"/>
  <outline>
    <contour>
      <point x="151" y="520" type="move"/>
      <point x="421" y="520" type="line"/>
    </contour>
    <contour>
      <point x="101" y="44" type="move"/>
      <point x="146" y="23"/>
      <point x="210" y="7"/>
      <point x="279" y="7" type="curve" smooth="yes"/>
      <point x="399" y="7"/>
      <point x="454" y="75"/>
      <point x="454" y="162" type="curve" smooth="yes"/>
      <point x="454" y="244"/>
      <point x="390" y="305"/>
      <point x="284" y="305" type="curve" smooth="yes"/>
      <point x="214" y="305"/>
      <point x="164" y="287"/>
      <point x="130" y="271" type="curve"/>
    </contour>
    <contour>
      <point x="150" y="513" type="move"/>
      <point x="130" y="277" type="line" smooth="yes"/>
    </contour>
  </outline>
</glyph>
<glyph name="six" format="1">
  <advance width="566"/>
  <unicode hex="0036"/>
  <outline>
    <contour>
      <point x="407" y="515" type="move"/>
      <point x="379" y="524"/>
      <point x="356" y="529"/>
      <point x="321" y="529" type="curve" smooth="yes"/>
      <point x="184" y="529"/>
      <point x="100" y="422"/>
      <point x="100" y="248" type="curve" smooth="yes"/>
      <point x="100" y="87"/>
      <point x="182" y="7"/>
      <point x="299" y="7" type="curve" smooth="yes"/>
      <point x="424" y="7"/>
      <point x="475" y="88"/>
      <point x="475" y="166" type="curve" smooth="yes"/>
      <point x="475" y="252"/>
      <point x="412" y="311"/>
      <point x="320" y="311" type="curve" smooth="yes"/>
      <point x="226" y="311"/>
      <point x="148" y="247"/>
      <point x="117" y="134" type="curve"/>
    </contour>
  </outline>
</glyph>
<glyph name="nine" format="1">
  <advance width="563"/>
  <unicode hex="0039"/>
  <outline>
    <contour>
      <point x="159" y="21" type="move"/>
      <point x="186" y="14"/>
      <point x="210" y="8"/>
      <point x="245" y="8" type="curve" smooth="yes"/>
      <point x="391" y="8"/>
      <point x="463" y="102"/>
      <point x="463" y="268" type="curve" smooth="yes"/>
      <point x="463" y="434"/>
      <point x="383" y="529"/>
      <point x="264" y="529" type="curve" smooth="yes"/>
      <point x="147" y="529"/>
      <point x="91" y="450"/>
      <point x="91" y="372" type="curve" smooth="yes"/>
      <point x="91" y="274"/>
      <point x="150" y="219"/>
      <point x="254" y="219" type="curve" smooth="yes"/>
      <point x="351" y="219"/>
      <point x="410" y="270"/>
      <point x="456" y="346" type="curve"/>
    </contour>
  </outline>
</glyph>
<glyph name="question" format="1">
  <advance width="390"/>
  <unicode hex="003F"/>
  <outline>
    <contour>
      <point x="72" y="493" type="move"/>
      <point x="109" y="516"/>
      <point x="145" y="529"/>
      <point x="204" y="529" type="curve" smooth="yes"/>
      <point x="288" y="529"/>
      <point x="333" y="479"/>
      <point x="333" y="422" type="curve" smooth="yes"/>
      <point x="333" y="370"/>
      <point x="293" y="332"/>
      <point x="242" y="306" type="curve" smooth="yes"/>
      <point x="185" y="276"/>
      <point x="169" y="255"/>
      <point x="166" y="202" type="curve"/>
    </contour>
    <contour>
      <point x="171" y="66" type="curve" smooth="yes"/>
      <point x="155" y="66"/>
      <point x="150" y="51"/>
      <point x="150" y="36" type="curve" smooth="yes"/>
      <point x="150" y="18"/>
      <point x="160" y="6"/>
      <point x="172" y="6" type="curve" smooth="yes"/>
      <point x="187" y="6"/>
      <point x="193" y="18"/>
      <point x="193" y="36" type="curve" smooth="yes"/>
      <point x="193" y="51"/>
      <point x="186" y="66"/>
    </contour>
  </outline>
</glyph>
<glyph name="at" format="1">
  <advance width="698"/>
  <unicode hex="0040"/>
  <outline>
    <contour>
      <point x="443" y="386" type="move"/>
      <point x="443" y="249" type="line" smooth="yes"/>
      <point x="443" y="185"/>
      <point x="482" y="147"/>
      <point x="529" y="147" type="curve" smooth="yes"/>
      <point x="582" y="147"/>
      <point x="621" y="194"/>
      <point x="621" y="275" type="curve" smooth="yes"/>
      <point x="621" y="408"/>
      <point x="522" y="531"/>
      <point x="353" y="531" type="curve" smooth="yes"/>
      <point x="195" y="531"/>
      <point x="80" y="408"/>
      <point x="80" y="261" type="curve" smooth="yes"/>
      <point x="80" y="114"/>
      <point x="192" y="0"/>
      <point x="356" y="0" type="curve" smooth="yes"/>
      <point x="421" y="0"/>
      <point x="476" y="15"/>
      <point x="517" y="33" type="curve"/>
    </contour>
    <contour>
      <point x="443" y="357" type="move"/>
      <point x="416" y="375"/>
      <point x="386" y="386"/>
      <point x="348" y="386" type="curve" smooth="yes"/>
      <point x="285" y="386"/>
      <point x="231" y="337"/>
      <point x="231" y="257" type="curve" smooth="yes"/>
      <point x="231" y="188"/>
      <point x="278" y="148"/>
      <point x="329" y="148" type="curve" smooth="yes"/>
      <point x="371" y="148"/>
      <point x="413" y="173"/>
      <point x="442" y="223" type="curve"/>
    </contour>
  </outline>
</glyph>
<glyph name="C" format="1">
  <advance width="594"/>
  <unicode hex="0043"/>
  <outline>
    <contour>
      <point x="494" y="499" type="move"/>
      <point x="459" y="518"/>
      <point x="406" y="530"/>
      <point x="351" y="530" type="curve" smooth="yes"/>
      <point x="211" y="530"/>
      <point x="90" y="422"/>
      <point x="90" y="262" type="curve" smooth="yes"/>
      <point x="90" y="115"/>
      <point x="188" y="1"/>
      <point x="357" y="1" type="curve" smooth="yes"/>
      <point x="412" y="1"/>
      <point x="460" y="13"/>
      <point x="499" y="33" type="curve"/>
    </contour>
  </outline>
</glyph>
<glyph name="D" format="1">
  <advance width="643"/>
  <unicode hex="0044"/>
  <outline>
    <contour>
      <point x="314" y="11" type="line" smooth="yes"/>
      <point x="459" y="11"/>
      <point x="552" y="124"/>
      <point x="552" y="266" type="curve" smooth="yes"/>
      <point x="552" y="415"/>
      <point x="440" y="520"/>
      <point x="314" y="520" type="curve" smooth="yes"/>
      <point x="129" y="520" type="line"/>
      <point x="129" y="11" type="line"/>
    </contour>
  </outline>
</glyph>
<glyph name="G" format="1">
  <advance width="649"/>
  <unicode hex="0047"/>
  <outline>
    <contour>
      <point x="505" y="501" type="move"/>
      <point x="461" y="518"/>
      <point x="411" y="530"/>
      <point x="352" y="530" type="curve" smooth="yes"/>
      <point x="201" y="530"/>
      <point x="90" y="422"/>
      <point x="90" y="262" type="curve" smooth="yes"/>
      <point x="90" y="117"/>
      <point x="185" y="1"/>
      <point x="349" y="1" type="curve" smooth="yes"/>
      <point x="429" y="1"/>
      <point x="488" y="22"/>
      <point x="537" y="53" type="curve"/>
      <point x="537" y="53"/>
    </contour>
    <contour>
      <point x="538" y="63" type="move"/>
      <point x="538" y="246" type="line"/>
    </contour>
    <contour>
      <point x="526" y="246" type="move"/>
      <point x="365" y="246" type="line"/>
    </contour>
  </outline>
</glyph>
<glyph name="M" format="1">
  <advance width="861.0"/>
  <unicode hex="004D"/>
  <outline>
    <contour>
      <point x="182" y="529" type="move"/>
      <point x="156" y="379"/>
      <point x="123" y="130"/>
      <point x="110" y="9" type="curve"/>
    </contour>
    <contour>
      <point x="664" y="530" type="move"/>
      <point x="696" y="367"/>
      <point x="731" y="149"/>
      <point x="750" y="9" type="curve"/>
    </contour>
    <contour>
      <point x="194" y="516" type="move"/>
      <point x="259" y="382"/>
      <point x="358" y="176"/>
      <point x="428" y="29" type="curve"/>
    </contour>
    <contour>
      <point x="432" y="41" type="move"/>
      <point x="495" y="184"/>
      <point x="579" y="369"/>
      <point x="656" y="522" type="curve"/>
    </contour>
  </outline>
</glyph>
<glyph name="c" format="1">
  <advance width="458"/>
  <unicode hex="0063"/>
  <outline>
    <contour>
      <point x="366" y="358" type="move"/>
      <point x="338" y="367"/>
      <point x="303" y="374"/>
      <point x="273" y="374" type="curve" smooth="yes"/>
      <point x="149" y="374"/>
      <point x="78" y="294"/>
      <point x="78" y="185" type="curve" smooth="yes"/>
      <point x="78" y="89"/>
      <point x="147" y="14"/>
      <point x="272" y="14" type="curve" smooth="yes"/>
      <point x="315" y="14"/>
      <point x="350" y="23"/>
      <point x="379" y="34" type="curve"/>
    </contour>
  </outline>
</glyph>
<glyph name="e" format="1">
  <advance width="483.0"/>
  <unicode hex="0065"/>
  <outline>
    <contour>
      <point x="91" y="193" type="move"/>
      <point x="311" y="193" type="line" smooth="yes"/>
      <point x="374" y="193"/>
      <point x="397" y="218"/>
      <point x="397" y="258" type="curve" smooth="yes"/>
      <point x="397" y="308"/>
      <point x="341" y="374"/>
      <point x="254" y="374" type="curve" smooth="yes"/>
      <point x="156" y="374"/>
      <point x="78" y="299"/>
      <point x="78" y="189" type="curve" smooth="yes"/>
      <point x="78" y="75"/>
      <point x="159" y="14"/>
      <point x="275" y="14" type="curve" smooth="yes"/>
      <point x="313" y="14"/>
      <point x="350" y="23"/>
      <point x="377" y="33" type="curve"/>
      <point x="377" y="33"/>
    </contour>
  </outline>
</glyph>
<glyph name="g" format="1">
  <advance width="528"/>
  <unicode hex="0067"/>
  <outline>
    <contour>
      <point x="413" y="339" type="move"/>
      <point x="358" y="365"/>
      <point x="321" y="378"/>
      <point x="263" y="378" type="curve" smooth="yes"/>
      <point x="169" y="378"/>
      <point x="78" y="305"/>
      <point x="78" y="189" type="curve" smooth="yes"/>
      <point x="78" y="79"/>
      <point x="152" y="32"/>
      <point x="227" y="32" type="curve" smooth="yes"/>
      <point x="296" y="32"/>
      <point x="365" y="70"/>
      <point x="412" y="144" type="curve"/>
    </contour>
    <contour>
      <point x="170" y="-171" type="move"/>
      <point x="338" y="-171"/>
      <point x="413" y="-77"/>
      <point x="413" y="67" type="curve" smooth="yes"/>
      <point x="413" y="378" type="line"/>
    </contour>
  </outline>
</glyph>
<glyph name="k" format="1">
  <advance width="492"/>
  <unicode hex="006B"/>
  <outline>
    <contour>
      <point x="116" y="10" type="move"/>
      <point x="116" y="547" type="line"/>
    </contour>
    <contour>
      <point x="246" y="248" type="move"/>
      <point x="415" y="10" type="line"/>
    </contour>
    <contour>
      <point x="401" y="369" type="move"/>
      <point x="118" y="147" type="line"/>
    </contour>
  </outline>
</glyph>
<glyph name="o" format="1">
  <advance width="520"/>
  <unicode hex="006F"/>
  <outline>
    <contour>
      <point x="259" y="378" type="curve" smooth="yes"/>
      <point x="146" y="378"/>
      <point x="77" y="293"/>
      <point x="77" y="191" type="curve" smooth="yes"/>
      <point x="77" y="89"/>
      <point x="148" y="10"/>
      <point x="259" y="10" type="curve" smooth="yes"/>
      <point x="371" y="10"/>
      <point x="442" y="88"/>
      <point x="442" y="189" type="curve" smooth="yes"/>
      <point x="442" y="293"/>
      <point x="372" y="378"/>
    </contour>
  </outline>
</glyph>
<glyph name="p" format="1">
  <advance width="528"/>
  <unicode hex="0070"/>
  <outline>
    <contour>
      <point x="116" y="-181" type="move"/>
      <point x="116" y="378" type="line"/>
    </contour>
    <contour>
      <point x="116" y="86" type="move"/>
      <point x="164" y="47"/>
      <point x="222" y="19"/>
      <point x="278" y="19" type="curve" smooth="yes"/>
      <point x="381" y="19"/>
      <point x="452" y="97"/>
      <point x="452" y="199" type="curve" smooth="yes"/>
      <point x="452" y="315"/>
      <point x="376" y="378"/>
      <point x="291" y="378" type="curve" smooth="yes"/>
      <point x="223" y="378"/>
      <point x="164" y="333"/>
      <point x="117" y="266" type="curve"/>
    </contour>
  </outline>
</glyph>
<glyph name="w" format="1">
  <advance width="734"/>
  <unicode hex="0077"/>
  <outline>
    <contour>
      <point x="77" y="373" type="move"/>
      <point x="116" y="233"/>
      <point x="166" y="102"/>
      <point x="209" y="11" type="curve"/>
      <point x="211" y="11" type="line"/>
      <point x="256" y="102"/>
      <point x="328" y="248"/>
      <point x="363" y="362" type="curve"/>
    </contour>
    <contour>
      <point x="371" y="362" type="move"/>
      <point x="420" y="222"/>
      <point x="476" y="101"/>
      <point x="524" y="10" type="curve"/>
      <point x="526" y="10" type="line"/>
      <point x="567" y="101"/>
      <point x="624" y="246"/>
      <point x="658" y="372" type="curve"/>
    </contour>
  </outline>
</glyph>
<glyph name="y" format="1">
  <advance width="473"/>
  <unicode hex="0079"/>
  <outline>
    <contour>
      <point x="66" y="-164" type="move"/>
      <point x="132" y="-126"/>
      <point x="192" y="-80"/>
      <point x="251" y="20" type="curve" smooth="yes"/>
      <point x="307" y="114"/>
      <point x="370" y="259"/>
      <point x="405" y="378" type="curve"/>
    </contour>
    <contour>
      <point x="68" y="379" type="move"/>
      <point x="125" y="218"/>
      <point x="194" y="103"/>
      <point x="248" y="20" type="curve"/>
    </contour>
  </outline>
</glyph>
<glyph name="asciitilde" format="1">
  <advance width="643"/>
  <unicode hex="007E"/>
  <outline>
    <contour>
      <point x="119" y="205" type="move"/>
      <point x="155" y="280"/>
      <point x="188" y="319"/>
      <point x="233" y="319" type="curve" smooth="yes"/>
      <point x="271" y="319"/>
      <point x="294" y="292"/>
      <point x="324" y="258" type="curve" smooth="yes"/>
      <point x="357" y="220"/>
      <point x="384" y="197"/>
      <point x="420" y="197" type="curve" smooth="yes"/>
      <point x="470" y="197"/>
      <point x="501" y="237"/>
      <point x="542" y="323" type="curve"/>
    </contour>
  </outline>
</glyph>
<glyph name="exclamdown" format="1">
  <advance width="343"/>
  <unicode hex="00A1"/>
  <outline>
    <contour>
      <point x="170" y="291" type="move"/>
      <point x="177" y="-1" type="line"/>
    </contour>
    <contour>
      <point x="170" y="489" type="curve" smooth="yes"/>
      <point x="154" y="489"/>
      <point x="149" y="505"/>
      <point x="149" y="520" type="curve" smooth="yes"/>
      <point x="149" y="538"/>
      <point x="159" y="550"/>
      <point x="171" y="550" type="curve" smooth="yes"/>
      <point x="186" y="550"/>
      <point x="192" y="538"/>
      <point x="192" y="520" type="curve" smooth="yes"/>
      <point x="192" y="505"/>
      <point x="185" y="489"/>
    </contour>
  </outline>
</glyph>
<glyph name="cent" format="1">
  <advance width="455"/>
  <unicode hex="00A2"/>
  <outline>
    <contour>
      <point x="251" y="519" type="move"/>
      <point x="251" y="11" type="line"/>
    </contour>
    <contour>
      <point x="366" y="419" type="move"/>
      <point x="338" y="428"/>
      <point x="303" y="434"/>
      <point x="273" y="434" type="curve" smooth="yes"/>
      <point x="149" y="434"/>
      <point x="78" y="358"/>
      <point x="78" y="255" type="curve" smooth="yes"/>
      <point x="78" y="163"/>
      <point x="147" y="92"/>
      <point x="272" y="92" type="curve" smooth="yes"/>
      <point x="315" y="92"/>
      <point x="350" y="100"/>
      <point x="379" y="111" type="curve"/>
    </contour>
  </outline>
</glyph>
<glyph name="currency" format="1">
  <advance width="547"/>
  <unicode hex="00A4"/>
  <outline>
    <contour>
      <point x="273" y="394" type="curve" smooth="yes"/>
      <point x="170" y="394"/>
      <point x="107" y="316"/>
      <point x="107" y="224" type="curve" smooth="yes"/>
      <point x="107" y="132"/>
      <point x="172" y="60"/>
      <point x="273" y="60" type="curve" smooth="yes"/>
      <point x="374" y="60"/>
      <point x="439" y="131"/>
      <point x="439" y="222" type="curve" smooth="yes"/>
      <point x="439" y="316"/>
      <point x="375" y="394"/>
    </contour>
    <contour>
      <point x="466" y="14" type="move"/>
      <point x="392" y="96" type="line"/>
    </contour>
    <contour>
      <point x="154" y="355" type="move"/>
      <point x="86" y="430" type="line"/>
    </contour>
    <contour>
      <point x="392" y="356" type="move"/>
      <point x="460" y="432" type="line"/>
    </contour>
    <contour>
      <point x="81" y="14" type="move"/>
      <point x="152" y="93" type="line"/>
    </contour>
  </outline>
</glyph>
<glyph name="dieresis" format="1">
  <advance width="515"/>
  <unicode hex="00A8"/>
  <outline>
    <contour>
      <point x="158" y="568" type="curve" smooth="yes"/>
      <point x="146" y="568"/>
      <point x="140" y="555"/>
      <point x="140" y="541" type="curve" smooth="yes"/>
      <point x="140" y="527"/>
      <point x="146" y="516"/>
      <point x="158" y="516" type="curve" smooth="yes"/>
      <point x="168" y="516"/>
      <point x="174" y="527"/>
      <point x="174" y="541" type="curve" smooth="yes"/>
      <point x="174" y="555"/>
      <point x="168" y="568"/>
    </contour>
    <contour>
      <point x="344" y="568" type="curve" smooth="yes"/>
      <point x="333" y="568"/>
      <point x="327" y="555"/>
      <point x="327" y="541" type="curve" smooth="yes"/>
      <point x="327" y="527"/>
      <point x="333" y="516"/>
      <point x="344" y="516" type="curve" smooth="yes"/>
      <point x="355" y="516"/>
      <point x="361" y="527"/>
      <point x="361" y="541" type="curve" smooth="yes"/>
      <point x="361" y="555"/>
      <point x="355" y="568"/>
    </contour>
  </outline>
</glyph>
<glyph name="copyright" format="1">
  <advance width="686"/>
  <unicode hex="00A9"/>
  <outline>
    <contour>
      <point x="425" y="386" type="move"/>
      <point x="407" y="395"/>
      <point x="381" y="403"/>
      <point x="352" y="403" type="curve" smooth="yes"/>
      <point x="280" y="403"/>
      <point x="216" y="346"/>
      <point x="216" y="264" type="curve" smooth="yes"/>
      <point x="216" y="187"/>
      <point x="268" y="128"/>
      <point x="355" y="128" type="curve" smooth="yes"/>
      <point x="383" y="128"/>
      <point x="408" y="135"/>
      <point x="428" y="145" type="curve"/>
    </contour>
    <contour>
      <point x="345" y="530" type="curve" smooth="yes"/>
      <point x="185" y="530"/>
      <point x="78" y="420"/>
      <point x="78" y="262" type="curve" smooth="yes"/>
      <point x="78" y="117"/>
      <point x="188" y="1"/>
      <point x="345" y="1" type="curve" smooth="yes"/>
      <point x="511" y="1"/>
      <point x="608" y="117"/>
      <point x="608" y="265" type="curve" smooth="yes"/>
      <point x="608" y="420"/>
      <point x="491" y="530"/>
    </contour>
  </outline>
</glyph>
<glyph name="ordfeminine" format="1">
  <advance width="466"/>
  <unicode hex="00AA"/>
  <outline>
    <contour>
      <point x="103" y="155" type="move"/>
      <point x="374" y="155" type="line"/>
    </contour>
    <contour>
      <point x="153" y="504" type="move"/>
      <point x="169" y="509"/>
      <point x="195" y="516"/>
      <point x="219" y="516" type="curve" smooth="yes"/>
      <point x="286" y="516"/>
      <point x="316" y="476"/>
      <point x="316" y="418" type="curve" smooth="yes"/>
      <point x="316" y="355" type="line" smooth="yes"/>
      <point x="316" y="317"/>
      <point x="324" y="294"/>
      <point x="341" y="275" type="curve"/>
    </contour>
    <contour>
      <point x="314" y="411" type="move"/>
      <point x="290" y="412"/>
      <point x="269" y="414"/>
      <point x="248" y="414" type="curve" smooth="yes"/>
      <point x="195" y="414"/>
      <point x="162" y="400"/>
      <point x="139" y="380" type="curve" smooth="yes"/>
      <point x="124" y="365"/>
      <point x="120" y="351"/>
      <point x="120" y="332" type="curve" smooth="yes"/>
      <point x="120" y="307"/>
      <point x="139" y="275"/>
      <point x="188" y="275" type="curve" smooth="yes"/>
      <point x="243" y="275"/>
      <point x="281" y="295"/>
      <point x="316" y="342" type="curve"/>
    </contour>
  </outline>
</glyph>
<glyph name="registered" format="1">
  <advance width="588.0"/>
  <unicode hex="00AE"/>
  <outline>
    <contour>
      <point x="247" y="376" type="move"/>
      <point x="296" y="376" type="line" smooth="yes"/>
      <point x="341" y="376"/>
      <point x="362" y="404"/>
      <point x="362" y="438" type="curve" smooth="yes"/>
      <point x="362" y="474"/>
      <point x="336" y="496"/>
      <point x="296" y="496" type="curve" smooth="yes"/>
      <point x="236" y="496" type="line"/>
      <point x="236" y="312" type="line"/>
    </contour>
    <contour>
      <point x="324" y="369" type="move"/>
      <point x="374" y="312" type="line"/>
    </contour>
    <contour>
      <point x="291" y="609" type="curve" smooth="yes"/>
      <point x="418" y="609"/>
      <point x="505" y="521"/>
      <point x="505" y="403" type="curve" smooth="yes"/>
      <point x="505" y="284"/>
      <point x="417" y="196"/>
      <point x="298" y="196" type="curve" smooth="yes"/>
      <point x="171" y="196"/>
      <point x="89" y="293"/>
      <point x="89" y="406" type="curve" smooth="yes"/>
      <point x="89" y="526"/>
      <point x="171" y="609"/>
    </contour>
  </outline>
</glyph>
<glyph name="acute" format="1">
  <advance width="515"/>
  <unicode hex="00B4"/>
  <outline>
    <contour>
      <point x="301" y="599" type="move"/>
      <point x="272" y="567"/>
      <point x="244" y="533"/>
      <point x="216" y="501" type="curve"/>
    </contour>
  </outline>
</glyph>
<glyph name="onehalf" format="1">
  <advance width="819.0"/>
  <unicode hex="00BD"/>
  <outline>
    <contour>
      <point x="517" y="520" type="move"/>
      <point x="219" y="11" type="line"/>
    </contour>
    <contour>
      <point x="212" y="527" type="move"/>
      <point x="212" y="256" type="line"/>
    </contour>
    <contour>
      <point x="212" y="530" type="move"/>
      <point x="126" y="484" type="line"/>
    </contour>
    <contour>
      <point x="495" y="16" type="move"/>
      <point x="588" y="103" type="line" smooth="yes"/>
      <point x="649" y="161"/>
      <point x="668" y="183"/>
      <point x="668" y="217" type="curve" smooth="yes"/>
      <point x="668" y="249"/>
      <point x="643" y="279"/>
      <point x="589" y="279" type="curve" smooth="yes"/>
      <point x="559" y="279"/>
      <point x="534" y="271"/>
      <point x="508" y="254" type="curve"/>
    </contour>
    <contour>
      <point x="688" y="11" type="move"/>
      <point x="489" y="11" type="line"/>
    </contour>
  </outline>
</glyph>
<glyph name="threequarters" format="1">
  <advance width="867"/>
  <unicode hex="00BE"/>
  <outline>
    <contour>
      <point x="615" y="520" type="move"/>
      <point x="318" y="11" type="line"/>
    </contour>
    <contour>
      <point x="681" y="285" type="move"/>
      <point x="681" y="12" type="line"/>
    </contour>
    <contour>
      <point x="677" y="280" type="move"/>
      <point x="516" y="91" type="line"/>
    </contour>
    <contour>
      <point x="521" y="91" type="move"/>
      <point x="747" y="91" type="line"/>
    </contour>
    <contour>
      <point x="143" y="520" type="move"/>
      <point x="323" y="520" type="line"/>
    </contour>
    <contour>
      <point x="132" y="263" type="move"/>
      <point x="158" y="253"/>
      <point x="190" y="246"/>
      <point x="228" y="246" type="curve" smooth="yes"/>
      <point x="298" y="246"/>
      <point x="333" y="279"/>
      <point x="333" y="322" type="curve" smooth="yes"/>
      <point x="333" y="366"/>
      <point x="296" y="395"/>
      <point x="235" y="395" type="curve" smooth="yes"/>
      <point x="206" y="395"/>
      <point x="183" y="391"/>
      <point x="170" y="387" type="curve"/>
    </contour>
    <contour>
      <point x="318" y="516" type="move"/>
      <point x="172" y="389" type="line" smooth="yes"/>
    </contour>
  </outline>
</glyph>
<glyph name="questiondown" format="1">
  <advance width="390"/>
  <unicode hex="00BF"/>
  <outline>
    <contour>
      <point x="328" y="58" type="move"/>
      <point x="291" y="35"/>
      <point x="255" y="22"/>
      <point x="196" y="22" type="curve" smooth="yes"/>
      <point x="112" y="22"/>
      <point x="67" y="72"/>
      <point x="67" y="129" type="curve" smooth="yes"/>
      <point x="67" y="181"/>
      <point x="107" y="219"/>
      <point x="159" y="245" type="curve" smooth="yes"/>
      <point x="215" y="275"/>
      <point x="231" y="296"/>
      <point x="234" y="349" type="curve"/>
    </contour>
    <contour>
      <point x="229" y="485" type="curve" smooth="yes"/>
      <point x="245" y="485"/>
      <point x="250" y="500"/>
      <point x="250" y="515" type="curve" smooth="yes"/>
      <point x="250" y="533"/>
      <point x="240" y="545"/>
      <point x="228" y="545" type="curve" smooth="yes"/>
      <point x="213" y="545"/>
      <point x="207" y="533"/>
      <point x="207" y="515" type="curve" smooth="yes"/>
      <point x="207" y="500"/>
      <point x="214" y="485"/>
    </contour>
  </outline>
</glyph>
<glyph name="Aacute" format="1">
  <advance width="609.0"/>
  <unicode hex="00C1"/>
  <outline>
    <contour>
      <point x="295" y="524" type="move"/>
      <point x="224" y="364"/>
      <point x="124" y="138"/>
      <point x="77" y="5" type="curve"/>
    </contour>
    <contour>
      <point x="301" y="524" type="move"/>
      <point x="377" y="362"/>
      <point x="480" y="135"/>
      <point x="530" y="5" type="curve"/>
    </contour>
    <contour>
      <point x="149" y="158" type="move"/>
      <point x="455" y="158" type="line"/>
    </contour>
    <contour>
      <point x="419" y="743" type="move"/>
      <point x="371" y="714"/>
      <point x="320" y="682"/>
      <point x="290" y="660" type="curve"/>
    </contour>
  </outline>
</glyph>
<glyph name="Atilde" format="1">
  <advance width="609.0"/>
  <unicode hex="00C3"/>
  <outline>
    <contour>
      <point x="295" y="525" type="move"/>
      <point x="224" y="364"/>
      <point x="124" y="139"/>
      <point x="77" y="6" type="curve"/>
    </contour>
    <contour>
      <point x="301" y="525" type="move"/>
      <point x="377" y="363"/>
      <point x="480" y="135"/>
      <point x="530" y="6" type="curve"/>
    </contour>
    <contour>
      <point x="149" y="158" type="move"/>
      <point x="455" y="158" type="line"/>
    </contour>
    <contour>
      <point x="172" y="662" type="move"/>
      <point x="196" y="693"/>
      <point x="219" y="712"/>
      <point x="244" y="712" type="curve" smooth="yes"/>
      <point x="266" y="712"/>
      <point x="285" y="699"/>
      <point x="306" y="683" type="curve" smooth="yes"/>
      <point x="327" y="668"/>
      <point x="345" y="656"/>
      <point x="366" y="656" type="curve" smooth="yes"/>
      <point x="396" y="656"/>
      <point x="418" y="675"/>
      <point x="445" y="711" type="curve"/>
    </contour>
  </outline>
</glyph>
<glyph name="Aring" format="1">
  <advance width="609.0"/>
  <unicode hex="00C5"/>
  <outline>
    <contour>
      <point x="295" y="525" type="move"/>
      <point x="224" y="365"/>
      <point x="124" y="139"/>
      <point x="77" y="7" type="curve"/>
    </contour>
    <contour>
      <point x="301" y="525" type="move"/>
      <point x="377" y="364"/>
      <point x="480" y="136"/>
      <point x="530" y="7" type="curve"/>
    </contour>
    <contour>
      <point x="149" y="159" type="move"/>
      <point x="455" y="159" type="line"/>
    </contour>
    <contour>
      <point x="385" y="608" type="curve" smooth="yes"/>
      <point x="385" y="651"/>
      <point x="351" y="690"/>
      <point x="294" y="690" type="curve" smooth="yes"/>
      <point x="239" y="690"/>
      <point x="206" y="648"/>
      <point x="206" y="608" type="curve" smooth="yes"/>
      <point x="206" y="568"/>
      <point x="239" y="526"/>
      <point x="294" y="526" type="curve" smooth="yes"/>
      <point x="351" y="526"/>
      <point x="385" y="565"/>
    </contour>
  </outline>
</glyph>
<glyph name="AE" format="1">
  <advance width="793"/>
  <unicode hex="00C6"/>
  <outline>
    <contour>
      <point x="372" y="520" type="move"/>
      <point x="264" y="343"/>
      <point x="131" y="143"/>
      <point x="45" y="11" type="curve"/>
    </contour>
    <contour>
      <point x="150" y="163" type="move"/>
      <point x="412" y="163" type="line"/>
    </contour>
    <contour>
      <point x="431" y="520" type="move"/>
      <point x="377" y="520" type="line"/>
    </contour>
    <contour>
      <point x="413" y="520" type="move"/>
      <point x="413" y="11" type="line"/>
    </contour>
    <contour>
      <point x="421" y="11" type="move"/>
      <point x="706" y="11" type="line"/>
    </contour>
    <contour>
      <point x="421" y="520" type="move"/>
      <point x="704" y="520" type="line"/>
    </contour>
    <contour>
      <point x="421" y="285" type="move"/>
      <point x="658" y="285" type="line"/>
    </contour>
  </outline>
</glyph>
<glyph name="Eacute" format="1">
  <advance width="511"/>
  <unicode hex="00C9"/>
  <outline>
    <contour>
      <point x="129" y="515" type="move"/>
      <point x="129" y="5" type="line"/>
    </contour>
    <contour>
      <point x="138" y="5" type="move"/>
      <point x="422" y="5" type="line"/>
    </contour>
    <contour>
      <point x="138" y="515" type="move"/>
      <point x="420" y="515" type="line"/>
    </contour>
    <contour>
      <point x="138" y="280" type="move"/>
      <point x="375" y="280" type="line"/>
    </contour>
    <contour>
      <point x="395" y="743" type="move"/>
      <point x="347" y="714"/>
      <point x="296" y="682"/>
      <point x="266" y="660" type="curve"/>
    </contour>
  </outline>
</glyph>
<glyph name="Icircumflex" format="1">
  <advance width="269"/>
  <unicode hex="00CE"/>
  <outline>
    <contour>
      <point x="134" y="515" type="move"/>
      <point x="134" y="5" type="line"/>
    </contour>
    <contour>
      <point x="128" y="741" type="move"/>
      <point x="93" y="715"/>
      <point x="57" y="690"/>
      <point x="27" y="668" type="curve"/>
    </contour>
    <contour>
      <point x="236" y="668" type="move"/>
      <point x="207" y="690"/>
      <point x="171" y="715"/>
      <point x="135" y="741" type="curve"/>
    </contour>
  </outline>
</glyph>
<glyph name="Eth" format="1">
  <advance width="658"/>
  <unicode hex="00D0"/>
  <outline>
    <contour>
      <point x="67" y="270" type="move"/>
      <point x="326" y="270" type="line"/>
    </contour>
    <contour>
      <point x="330" y="11" type="line" smooth="yes"/>
      <point x="475" y="11"/>
      <point x="568" y="124"/>
      <point x="568" y="266" type="curve" smooth="yes"/>
      <point x="568" y="415"/>
      <point x="456" y="520"/>
      <point x="330" y="520" type="curve" smooth="yes"/>
      <point x="145" y="520" type="line"/>
      <point x="145" y="11" type="line"/>
    </contour>
  </outline>
</glyph>
<glyph name="Ntilde" format="1">
  <advance width="667"/>
  <unicode hex="00D1"/>
  <outline>
    <contour>
      <point x="129" y="515" type="move"/>
      <point x="129" y="6" type="line"/>
    </contour>
    <contour>
      <point x="538" y="515" type="move"/>
      <point x="538" y="6" type="line"/>
    </contour>
    <contour>
      <point x="135" y="515" type="move"/>
      <point x="214" y="410"/>
      <point x="419" y="156"/>
      <point x="531" y="6" type="curve"/>
    </contour>
    <contour>
      <point x="192" y="662" type="move"/>
      <point x="216" y="693"/>
      <point x="239" y="712"/>
      <point x="264" y="712" type="curve" smooth="yes"/>
      <point x="286" y="712"/>
      <point x="305" y="699"/>
      <point x="326" y="683" type="curve" smooth="yes"/>
      <point x="347" y="668"/>
      <point x="365" y="656"/>
      <point x="386" y="656" type="curve" smooth="yes"/>
      <point x="416" y="656"/>
      <point x="438" y="675"/>
      <point x="465" y="711" type="curve"/>
    </contour>
  </outline>
</glyph>
<glyph name="Ograve" format="1">
  <advance width="672.0"/>
  <unicode hex="00D2"/>
  <outline>
    <contour>
      <point x="338" y="524" type="curve" smooth="yes"/>
      <point x="190" y="524"/>
      <point x="90" y="415"/>
      <point x="90" y="257" type="curve" smooth="yes"/>
      <point x="90" y="112"/>
      <point x="192" y="-4"/>
      <point x="338" y="-4" type="curve" smooth="yes"/>
      <point x="492" y="-4"/>
      <point x="582" y="112"/>
      <point x="582" y="260" type="curve" smooth="yes"/>
      <point x="582" y="415"/>
      <point x="474" y="524"/>
    </contour>
    <contour>
      <point x="213" y="744" type="move"/>
      <point x="251" y="723"/>
      <point x="307" y="681"/>
      <point x="335" y="659" type="curve"/>
    </contour>
  </outline>
</glyph>
<glyph name="Oslash" format="1">
  <advance width="672.0"/>
  <unicode hex="00D8"/>
  <outline>
    <contour>
      <point x="551" y="520" type="move"/>
      <point x="121" y="-9" type="line"/>
    </contour>
    <contour>
      <point x="338" y="530" type="curve" smooth="yes"/>
      <point x="190" y="530"/>
      <point x="90" y="421"/>
      <point x="90" y="262" type="curve" smooth="yes"/>
      <point x="90" y="117"/>
      <point x="192" y="2"/>
      <point x="338" y="2" type="curve" smooth="yes"/>
      <point x="492" y="2"/>
      <point x="582" y="117"/>
      <point x="582" y="265" type="curve" smooth="yes"/>
      <point x="582" y="421"/>
      <point x="474" y="530"/>
    </contour>
  </outline>
</glyph>
<glyph name="Ugrave" format="1">
  <advance width="647"/>
  <unicode hex="00D9"/>
  <outline>
    <contour>
      <point x="117" y="516" type="move"/>
      <point x="117" y="205" type="line" smooth="yes"/>
      <point x="117" y="72"/>
      <point x="201" y="-3"/>
      <point x="321" y="-3" type="curve" smooth="yes"/>
      <point x="455" y="-3"/>
      <point x="530" y="72"/>
      <point x="530" y="208" type="curve" smooth="yes"/>
      <point x="530" y="516" type="line"/>
    </contour>
    <contour>
      <point x="211" y="713" type="move"/>
      <point x="249" y="692"/>
      <point x="305" y="650"/>
      <point x="333" y="628" type="curve"/>
    </contour>
  </outline>
</glyph>
<glyph name="Thorn" format="1">
  <advance width="530"/>
  <unicode hex="00DE"/>
  <outline>
    <contour>
      <point x="129" y="520" type="move"/>
      <point x="129" y="11" type="line"/>
    </contour>
    <contour>
      <point x="156" y="117" type="move"/>
      <point x="273" y="117" type="line" smooth="yes"/>
      <point x="392" y="117"/>
      <point x="449" y="185"/>
      <point x="449" y="267" type="curve" smooth="yes"/>
      <point x="449" y="357"/>
      <point x="379" y="421"/>
      <point x="273" y="421" type="curve" smooth="yes"/>
      <point x="141" y="421" type="line"/>
    </contour>
  </outline>
</glyph>
<glyph name="germandbls" format="1">
  <advance width="534"/>
  <unicode hex="00DF"/>
  <outline>
    <contour>
      <point x="273" y="294" type="move"/>
      <point x="365" y="356"/>
      <point x="382" y="393"/>
      <point x="382" y="452" type="curve" smooth="yes"/>
      <point x="382" y="514"/>
      <point x="340" y="575"/>
      <point x="249" y="574" type="curve" smooth="yes"/>
      <point x="163" y="572"/>
      <point x="122" y="516"/>
      <point x="122" y="441" type="curve" smooth="yes"/>
      <point x="122" y="10" type="line"/>
    </contour>
    <contour>
      <point x="268" y="17" type="move"/>
      <point x="284" y="11"/>
      <point x="310" y="5"/>
      <point x="338" y="5" type="curve" smooth="yes"/>
      <point x="417" y="5"/>
      <point x="460" y="51"/>
      <point x="460" y="115" type="curve" smooth="yes"/>
      <point x="460" y="167"/>
      <point x="429" y="214"/>
      <point x="360" y="248" type="curve" smooth="yes"/>
      <point x="273" y="290" type="line"/>
    </contour>
  </outline>
</glyph>
<glyph name="acircumflex" format="1">
  <advance width="473"/>
  <unicode hex="00E2"/>
  <outline>
    <contour>
      <point x="128" y="351" type="move"/>
      <point x="150" y="358"/>
      <point x="191" y="368"/>
      <point x="226" y="368" type="curve" smooth="yes"/>
      <point x="322" y="368"/>
      <point x="366" y="309"/>
      <point x="366" y="224" type="curve" smooth="yes"/>
      <point x="366" y="128" type="line" smooth="yes"/>
      <point x="366" y="71"/>
      <point x="380" y="37"/>
      <point x="405" y="10" type="curve"/>
    </contour>
    <contour>
      <point x="365" y="212" type="move"/>
      <point x="330" y="213"/>
      <point x="298" y="216"/>
      <point x="268" y="216" type="curve" smooth="yes"/>
      <point x="191" y="216"/>
      <point x="140" y="197"/>
      <point x="108" y="165" type="curve" smooth="yes"/>
      <point x="86" y="144"/>
      <point x="79" y="120"/>
      <point x="79" y="94" type="curve" smooth="yes"/>
      <point x="79" y="56"/>
      <point x="106" y="9"/>
      <point x="181" y="9" type="curve" smooth="yes"/>
      <point x="258" y="9"/>
      <point x="316" y="40"/>
      <point x="366" y="108" type="curve"/>
    </contour>
    <contour>
      <point x="224" y="607" type="move"/>
      <point x="192" y="576"/>
      <point x="159" y="543"/>
      <point x="131" y="516" type="curve"/>
    </contour>
    <contour>
      <point x="322" y="516" type="move"/>
      <point x="295" y="543"/>
      <point x="263" y="576"/>
      <point x="230" y="607" type="curve"/>
    </contour>
  </outline>
</glyph>
<glyph name="atilde" format="1">
  <advance width="473"/>
  <unicode hex="00E3"/>
  <outline>
    <contour>
      <point x="128" y="352" type="move"/>
      <point x="150" y="359"/>
      <point x="191" y="368"/>
      <point x="226" y="368" type="curve" smooth="yes"/>
      <point x="322" y="368"/>
      <point x="366" y="310"/>
      <point x="366" y="225" type="curve" smooth="yes"/>
      <point x="366" y="129" type="line" smooth="yes"/>
      <point x="366" y="71"/>
      <point x="380" y="38"/>
      <point x="405" y="10" type="curve"/>
    </contour>
    <contour>
      <point x="365" y="213" type="move"/>
      <point x="330" y="214"/>
      <point x="298" y="216"/>
      <point x="268" y="216" type="curve" smooth="yes"/>
      <point x="191" y="216"/>
      <point x="140" y="197"/>
      <point x="108" y="166" type="curve" smooth="yes"/>
      <point x="86" y="145"/>
      <point x="79" y="121"/>
      <point x="79" y="94" type="curve" smooth="yes"/>
      <point x="79" y="57"/>
      <point x="106" y="9"/>
      <point x="181" y="9" type="curve" smooth="yes"/>
      <point x="258" y="9"/>
      <point x="316" y="41"/>
      <point x="366" y="109" type="curve"/>
    </contour>
    <contour>
      <point x="118" y="531" type="move"/>
      <point x="138" y="561"/>
      <point x="160" y="582"/>
      <point x="181" y="582" type="curve" smooth="yes"/>
      <point x="200" y="582"/>
      <point x="212" y="571"/>
      <point x="235" y="553" type="curve" smooth="yes"/>
      <point x="256" y="538"/>
      <point x="272" y="527"/>
      <point x="290" y="527" type="curve" smooth="yes"/>
      <point x="312" y="527"/>
      <point x="329" y="546"/>
      <point x="350" y="577" type="curve"/>
    </contour>
  </outline>
</glyph>
<glyph name="ae" format="1">
  <advance width="782"/>
  <unicode hex="00E6"/>
  <outline>
    <contour>
      <point x="128" y="357" type="move"/>
      <point x="150" y="364"/>
      <point x="191" y="374"/>
      <point x="226" y="374" type="curve" smooth="yes"/>
      <point x="322" y="374"/>
      <point x="374" y="315"/>
      <point x="374" y="230" type="curve" smooth="yes"/>
      <point x="374" y="202" type="line" smooth="yes"/>
    </contour>
    <contour>
      <point x="373" y="218" type="move"/>
      <point x="337" y="219"/>
      <point x="298" y="221"/>
      <point x="268" y="221" type="curve" smooth="yes"/>
      <point x="191" y="221"/>
      <point x="140" y="202"/>
      <point x="108" y="171" type="curve" smooth="yes"/>
      <point x="86" y="150"/>
      <point x="79" y="126"/>
      <point x="79" y="99" type="curve" smooth="yes"/>
      <point x="79" y="62"/>
      <point x="106" y="14"/>
      <point x="181" y="14" type="curve" smooth="yes"/>
      <point x="258" y="14"/>
      <point x="329" y="53"/>
      <point x="389" y="107" type="curve"/>
    </contour>
    <contour>
      <point x="391" y="193" type="move"/>
      <point x="610" y="193" type="line" smooth="yes"/>
      <point x="673" y="193"/>
      <point x="696" y="218"/>
      <point x="696" y="258" type="curve" smooth="yes"/>
      <point x="696" y="308"/>
      <point x="641" y="374"/>
      <point x="553" y="374" type="curve" smooth="yes"/>
      <point x="456" y="374"/>
      <point x="377" y="299"/>
      <point x="377" y="189" type="curve" smooth="yes"/>
      <point x="377" y="75"/>
      <point x="458" y="14"/>
      <point x="574" y="14" type="curve" smooth="yes"/>
      <point x="612" y="14"/>
      <point x="649" y="23"/>
      <point x="676" y="33" type="curve"/>
      <point x="676" y="33"/>
    </contour>
  </outline>
</glyph>
<glyph name="egrave" format="1">
  <advance width="483.0"/>
  <unicode hex="00E8"/>
  <outline>
    <contour>
      <point x="91" y="187" type="move"/>
      <point x="311" y="187" type="line" smooth="yes"/>
      <point x="374" y="187"/>
      <point x="397" y="212"/>
      <point x="397" y="252" type="curve" smooth="yes"/>
      <point x="397" y="303"/>
      <point x="341" y="368"/>
      <point x="254" y="368" type="curve" smooth="yes"/>
      <point x="156" y="368"/>
      <point x="78" y="293"/>
      <point x="78" y="183" type="curve" smooth="yes"/>
      <point x="78" y="70"/>
      <point x="159" y="9"/>
      <point x="275" y="9" type="curve" smooth="yes"/>
      <point x="313" y="9"/>
      <point x="350" y="17"/>
      <point x="377" y="28" type="curve"/>
      <point x="377" y="28"/>
    </contour>
    <contour>
      <point x="172" y="610" type="move"/>
      <point x="201" y="574"/>
      <point x="218" y="552"/>
      <point x="245" y="511" type="curve"/>
    </contour>
  </outline>
</glyph>
<glyph name="eacute" format="1">
  <advance width="483.0"/>
  <unicode hex="00E9"/>
  <outline>
    <contour>
      <point x="91" y="187" type="move"/>
      <point x="311" y="187" type="line" smooth="yes"/>
      <point x="374" y="187"/>
      <point x="397" y="212"/>
      <point x="397" y="252" type="curve" smooth="yes"/>
      <point x="397" y="303"/>
      <point x="341" y="368"/>
      <point x="254" y="368" type="curve" smooth="yes"/>
      <point x="156" y="368"/>
      <point x="78" y="293"/>
      <point x="78" y="183" type="curve" smooth="yes"/>
      <point x="78" y="70"/>
      <point x="159" y="9"/>
      <point x="275" y="9" type="curve" smooth="yes"/>
      <point x="313" y="9"/>
      <point x="350" y="17"/>
      <point x="377" y="28" type="curve"/>
      <point x="377" y="28"/>
    </contour>
    <contour>
      <point x="339" y="611" type="move"/>
      <point x="310" y="579"/>
      <point x="281" y="545"/>
      <point x="254" y="513" type="curve"/>
    </contour>
  </outline>
</glyph>
<glyph name="idieresis" format="1">
  <advance width="244"/>
  <unicode hex="00EF"/>
  <outline>
    <contour>
      <point x="122" y="9" type="move"/>
      <point x="122" y="369" type="line"/>
    </contour>
    <contour>
      <point x="21" y="581" type="curve" smooth="yes"/>
      <point x="9" y="581"/>
      <point x="3" y="567"/>
      <point x="3" y="553" type="curve" smooth="yes"/>
      <point x="3" y="540"/>
      <point x="9" y="528"/>
      <point x="21" y="528" type="curve" smooth="yes"/>
      <point x="32" y="528"/>
      <point x="38" y="540"/>
      <point x="38" y="553" type="curve" smooth="yes"/>
      <point x="38" y="567"/>
      <point x="32" y="581"/>
    </contour>
    <contour>
      <point x="208" y="581" type="curve" smooth="yes"/>
      <point x="196" y="581"/>
      <point x="190" y="567"/>
      <point x="190" y="553" type="curve" smooth="yes"/>
      <point x="190" y="540"/>
      <point x="196" y="528"/>
      <point x="208" y="528" type="curve" smooth="yes"/>
      <point x="218" y="528"/>
      <point x="225" y="540"/>
      <point x="225" y="553" type="curve" smooth="yes"/>
      <point x="225" y="567"/>
      <point x="218" y="581"/>
    </contour>
  </outline>
</glyph>
<glyph name="eth" format="1">
  <advance width="508"/>
  <unicode hex="00F0"/>
  <outline>
    <contour>
      <point x="412" y="267" type="move"/>
      <point x="380" y="297"/>
      <point x="313" y="329"/>
      <point x="244" y="329" type="curve" smooth="yes"/>
      <point x="147" y="329"/>
      <point x="75" y="264"/>
      <point x="75" y="165" type="curve" smooth="yes"/>
      <point x="75" y="78"/>
      <point x="138" y="6"/>
      <point x="243" y="6" type="curve" smooth="yes"/>
      <point x="355" y="6"/>
      <point x="423" y="80"/>
      <point x="423" y="209" type="curve" smooth="yes"/>
      <point x="423" y="316"/>
      <point x="374" y="423"/>
      <point x="219" y="552" type="curve"/>
    </contour>
    <contour>
      <point x="194" y="439" type="move"/>
      <point x="366" y="543" type="line"/>
    </contour>
  </outline>
</glyph>
<glyph name="ntilde" format="1">
  <advance width="522"/>
  <unicode hex="00F1"/>
  <outline>
    <contour>
      <point x="116" y="9" type="move"/>
      <point x="116" y="368" type="line"/>
    </contour>
    <contour>
      <point x="417" y="9" type="move"/>
      <point x="417" y="219" type="line" smooth="yes"/>
      <point x="417" y="330"/>
      <point x="366" y="368"/>
      <point x="299" y="368" type="curve" smooth="yes"/>
      <point x="233" y="368"/>
      <point x="170" y="328"/>
      <point x="120" y="277" type="curve"/>
    </contour>
    <contour>
      <point x="144" y="531" type="move"/>
      <point x="164" y="561"/>
      <point x="186" y="582"/>
      <point x="207" y="582" type="curve" smooth="yes"/>
      <point x="226" y="582"/>
      <point x="238" y="571"/>
      <point x="261" y="553" type="curve" smooth="yes"/>
      <point x="282" y="538"/>
      <point x="298" y="527"/>
      <point x="316" y="527" type="curve" smooth="yes"/>
      <point x="338" y="527"/>
      <point x="355" y="546"/>
      <point x="376" y="577" type="curve"/>
    </contour>
  </outline>
</glyph>
<glyph name="oacute" format="1">
  <advance width="520"/>
  <unicode hex="00F3"/>
  <outline>
    <contour>
      <point x="259" y="372" type="curve" smooth="yes"/>
      <point x="146" y="372"/>
      <point x="77" y="287"/>
      <point x="77" y="185" type="curve" smooth="yes"/>
      <point x="77" y="83"/>
      <point x="148" y="5"/>
      <point x="259" y="5" type="curve" smooth="yes"/>
      <point x="371" y="5"/>
      <point x="442" y="82"/>
      <point x="442" y="183" type="curve" smooth="yes"/>
      <point x="442" y="287"/>
      <point x="372" y="372"/>
    </contour>
    <contour>
      <point x="340" y="611" type="move"/>
      <point x="311" y="579"/>
      <point x="282" y="545"/>
      <point x="255" y="513" type="curve"/>
    </contour>
  </outline>
</glyph>
<glyph name="ocircumflex" format="1">
  <advance width="520"/>
  <unicode hex="00F4"/>
  <outline>
    <contour>
      <point x="259" y="372" type="curve" smooth="yes"/>
      <point x="146" y="372"/>
      <point x="77" y="287"/>
      <point x="77" y="185" type="curve" smooth="yes"/>
      <point x="77" y="83"/>
      <point x="148" y="5"/>
      <point x="259" y="5" type="curve" smooth="yes"/>
      <point x="371" y="5"/>
      <point x="442" y="82"/>
      <point x="442" y="183" type="curve" smooth="yes"/>
      <point x="442" y="287"/>
      <point x="372" y="372"/>
    </contour>
    <contour>
      <point x="253" y="607" type="move"/>
      <point x="222" y="576"/>
      <point x="188" y="543"/>
      <point x="161" y="516" type="curve"/>
    </contour>
    <contour>
      <point x="352" y="516" type="move"/>
      <point x="324" y="543"/>
      <point x="292" y="576"/>
      <point x="259" y="607" type="curve"/>
    </contour>
  </outline>
</glyph>
<glyph name="ugrave" format="1">
  <advance width="522"/>
  <unicode hex="00F9"/>
  <outline>
    <contour>
      <point x="406" y="368" type="move"/>
      <point x="406" y="9" type="line"/>
    </contour>
    <contour>
      <point x="105" y="368" type="move"/>
      <point x="105" y="158" type="line" smooth="yes"/>
      <point x="105" y="48"/>
      <point x="155" y="9"/>
      <point x="223" y="9" type="curve" smooth="yes"/>
      <point x="289" y="9"/>
      <point x="358" y="60"/>
      <point x="402" y="121" type="curve"/>
    </contour>
    <contour>
      <point x="171" y="610" type="move"/>
      <point x="200" y="574"/>
      <point x="217" y="552"/>
      <point x="244" y="511" type="curve"/>
    </contour>
  </outline>
</glyph>
<glyph name="uacute" format="1">
  <advance width="522"/>
  <unicode hex="00FA"/>
  <outline>
    <contour>
      <point x="406" y="368" type="move"/>
      <point x="406" y="9" type="line"/>
    </contour>
    <contour>
      <point x="105" y="368" type="move"/>
      <point x="105" y="158" type="line" smooth="yes"/>
      <point x="105" y="48"/>
      <point x="155" y="9"/>
      <point x="223" y="9" type="curve" smooth="yes"/>
      <point x="289" y="9"/>
      <point x="358" y="60"/>
      <point x="402" y="121" type="curve"/>
    </contour>
    <contour>
      <point x="335" y="611" type="move"/>
      <point x="306" y="579"/>
      <point x="277" y="545"/>
      <point x="250" y="513" type="curve"/>
    </contour>
  </outline>
</glyph>
<glyph name="udieresis" format="1">
  <advance width="522"/>
  <unicode hex="00FC"/>
  <outline>
    <contour>
      <point x="406" y="369" type="move"/>
      <point x="406" y="9" type="line"/>
    </contour>
    <contour>
      <point x="105" y="369" type="move"/>
      <point x="105" y="159" type="line" smooth="yes"/>
      <point x="105" y="48"/>
      <point x="155" y="9"/>
      <point x="223" y="9" type="curve" smooth="yes"/>
      <point x="289" y="9"/>
      <point x="358" y="61"/>
      <point x="402" y="122" type="curve"/>
    </contour>
    <contour>
      <point x="158" y="581" type="curve" smooth="yes"/>
      <point x="146" y="581"/>
      <point x="140" y="567"/>
      <point x="140" y="553" type="curve" smooth="yes"/>
      <point x="140" y="540"/>
      <point x="146" y="528"/>
      <point x="158" y="528" type="curve" smooth="yes"/>
      <point x="168" y="528"/>
      <point x="174" y="540"/>
      <point x="174" y="553" type="curve" smooth="yes"/>
      <point x="174" y="567"/>
      <point x="168" y="581"/>
    </contour>
    <contour>
      <point x="344" y="581" type="curve" smooth="yes"/>
      <point x="333" y="581"/>
      <point x="327" y="567"/>
      <point x="327" y="553" type="curve" smooth="yes"/>
      <point x="327" y="540"/>
      <point x="333" y="528"/>
      <point x="344" y="528" type="curve" smooth="yes"/>
      <point x="355" y="528"/>
      <point x="361" y="540"/>
      <point x="361" y="553" type="curve" smooth="yes"/>
      <point x="361" y="567"/>
      <point x="355" y="581"/>
    </contour>
  </outline>
</glyph>
<glyph name="yacute" format="1">
  <advance width="473"/>
  <unicode hex="00FD"/>
  <outline>
    <contour>
      <point x="66" y="-170" type="move"/>
      <point x="132" y="-132"/>
      <point x="192" y="-86"/>
      <point x="251" y="14" type="curve" smooth="yes"/>
      <point x="307" y="109"/>
      <point x="370" y="253"/>
      <point x="405" y="372" type="curve"/>
    </contour>
    <contour>
      <point x="68" y="373" type="move"/>
      <point x="125" y="213"/>
      <point x="194" y="97"/>
      <point x="248" y="14" type="curve"/>
    </contour>
    <contour>
      <point x="314" y="616" type="move"/>
      <point x="285" y="583"/>
      <point x="256" y="550"/>
      <point x="229" y="517" type="curve"/>
    </contour>
  </outline>
</glyph>
<glyph name="Amacron" format="1">
  <advance width="603"/>
  <unicode hex="0100"/>
  <outline>
    <contour>
      <point x="295" y="525" type="move"/>
      <point x="224" y="365"/>
      <point x="124" y="139"/>
      <point x="77" y="6" type="curve"/>
    </contour>
    <contour>
      <point x="301" y="525" type="move"/>
      <point x="377" y="363"/>
      <point x="480" y="136"/>
      <point x="530" y="6" type="curve"/>
    </contour>
    <contour>
      <point x="149" y="159" type="move"/>
      <point x="455" y="159" type="line"/>
    </contour>
    <contour>
      <point x="417" y="701" type="move"/>
      <point x="176" y="701" type="line"/>
    </contour>
  </outline>
</glyph>
<glyph name="Abreve" format="1">
  <advance width="609.0"/>
  <unicode hex="0102"/>
  <outline>
    <contour>
      <point x="295" y="524" type="move"/>
      <point x="224" y="363"/>
      <point x="124" y="138"/>
      <point x="77" y="5" type="curve"/>
    </contour>
    <contour>
      <point x="301" y="524" type="move"/>
      <point x="377" y="362"/>
      <point x="480" y="135"/>
      <point x="530" y="5" type="curve"/>
    </contour>
    <contour>
      <point x="149" y="158" type="move"/>
      <point x="455" y="158" type="line"/>
    </contour>
    <contour>
      <point x="165" y="747" type="move"/>
      <point x="195" y="708"/>
      <point x="240" y="681"/>
      <point x="290" y="681" type="curve" smooth="yes"/>
      <point x="345" y="681"/>
      <point x="384" y="707"/>
      <point x="412" y="747" type="curve"/>
    </contour>
  </outline>
</glyph>
<glyph name="ccaron" format="1">
  <advance width="458"/>
  <unicode hex="010D"/>
  <outline>
    <contour>
      <point x="366" y="352" type="move"/>
      <point x="338" y="362"/>
      <point x="303" y="368"/>
      <point x="273" y="368" type="curve" smooth="yes"/>
      <point x="149" y="368"/>
      <point x="78" y="288"/>
      <point x="78" y="179" type="curve" smooth="yes"/>
      <point x="78" y="83"/>
      <point x="147" y="9"/>
      <point x="272" y="9" type="curve" smooth="yes"/>
      <point x="315" y="9"/>
      <point x="350" y="17"/>
      <point x="379" y="29" type="curve"/>
    </contour>
    <contour>
      <point x="162" y="602" type="move"/>
      <point x="189" y="575"/>
      <point x="227" y="536"/>
      <point x="252" y="511" type="curve"/>
    </contour>
    <contour>
      <point x="258" y="511" type="move"/>
      <point x="282" y="535"/>
      <point x="321" y="575"/>
      <point x="349" y="602" type="curve"/>
    </contour>
  </outline>
</glyph>
<glyph name="dcaron" format="1">
  <advance width="663"/>
  <unicode hex="010F"/>
  <outline>
    <contour>
      <point x="615" y="574" type="move"/>
      <point x="594" y="429" type="line"/>
    </contour>
    <contour>
      <point x="415" y="307" type="move"/>
      <point x="368" y="346"/>
      <point x="320" y="369"/>
      <point x="257" y="369" type="curve" smooth="yes"/>
      <point x="154" y="369"/>
      <point x="78" y="290"/>
      <point x="78" y="181" type="curve" smooth="yes"/>
      <point x="78" y="77"/>
      <point x="146" y="10"/>
      <point x="235" y="10" type="curve" smooth="yes"/>
      <point x="315" y="10"/>
      <point x="373" y="63"/>
      <point x="414" y="132" type="curve"/>
    </contour>
    <contour>
      <point x="415" y="546" type="move"/>
      <point x="415" y="10" type="line" smooth="yes"/>
    </contour>
  </outline>
</glyph>
<glyph name="dcroat" format="1">
  <advance width="532"/>
  <unicode hex="0111"/>
  <outline>
    <contour>
      <point x="415" y="307" type="move"/>
      <point x="368" y="346"/>
      <point x="320" y="369"/>
      <point x="257" y="369" type="curve" smooth="yes"/>
      <point x="154" y="369"/>
      <point x="78" y="291"/>
      <point x="78" y="181" type="curve" smooth="yes"/>
      <point x="78" y="77"/>
      <point x="146" y="10"/>
      <point x="235" y="10" type="curve" smooth="yes"/>
      <point x="315" y="10"/>
      <point x="373" y="64"/>
      <point x="414" y="133" type="curve"/>
    </contour>
    <contour>
      <point x="415" y="547" type="move"/>
      <point x="415" y="10" type="line" smooth="yes"/>
    </contour>
    <contour>
      <point x="473" y="483" type="move"/>
      <point x="300" y="483" type="line"/>
    </contour>
  </outline>
</glyph>
<glyph name="Emacron" format="1">
  <advance width="511"/>
  <unicode hex="0112"/>
  <outline>
    <contour>
      <point x="129" y="516" type="move"/>
      <point x="129" y="6" type="line"/>
    </contour>
    <contour>
      <point x="138" y="6" type="move"/>
      <point x="422" y="6" type="line"/>
    </contour>
    <contour>
      <point x="138" y="516" type="move"/>
      <point x="420" y="516" type="line"/>
    </contour>
    <contour>
      <point x="138" y="281" type="move"/>
      <point x="375" y="281" type="line"/>
    </contour>
    <contour>
      <point x="379" y="701" type="move"/>
      <point x="139" y="701" type="line"/>
    </contour>
  </outline>
</glyph>
<glyph name="edotaccent" format="1">
  <advance width="483.0"/>
  <unicode hex="0117"/>
  <outline>
    <contour>
      <point x="91" y="188" type="move"/>
      <point x="311" y="188" type="line" smooth="yes"/>
      <point x="374" y="188"/>
      <point x="397" y="213"/>
      <point x="397" y="253" type="curve" smooth="yes"/>
      <point x="397" y="303"/>
      <point x="341" y="368"/>
      <point x="254" y="368" type="curve" smooth="yes"/>
      <point x="156" y="368"/>
      <point x="78" y="294"/>
      <point x="78" y="184" type="curve" smooth="yes"/>
      <point x="78" y="70"/>
      <point x="159" y="9"/>
      <point x="275" y="9" type="curve" smooth="yes"/>
      <point x="313" y="9"/>
      <point x="350" y="18"/>
      <point x="377" y="28" type="curve"/>
      <point x="377" y="28"/>
    </contour>
    <contour>
      <point x="242" y="586" type="curve" smooth="yes"/>
      <point x="229" y="586"/>
      <point x="222" y="572"/>
      <point x="222" y="558" type="curve" smooth="yes"/>
      <point x="222" y="545"/>
      <point x="229" y="533"/>
      <point x="242" y="533" type="curve" smooth="yes"/>
      <point x="253" y="533"/>
      <point x="259" y="545"/>
      <point x="259" y="558" type="curve" smooth="yes"/>
      <point x="259" y="572"/>
      <point x="253" y="586"/>
    </contour>
  </outline>
</glyph>
<glyph name="Eogonek" format="1">
  <advance width="511"/>
  <unicode hex="0118"/>
  <outline>
    <contour>
      <point x="129" y="526" type="move"/>
      <point x="129" y="16" type="line"/>
    </contour>
    <contour>
      <point x="138" y="16" type="move"/>
      <point x="422" y="16" type="line"/>
    </contour>
    <contour>
      <point x="138" y="526" type="move"/>
      <point x="420" y="526" type="line"/>
    </contour>
    <contour>
      <point x="138" y="290" type="move"/>
      <point x="375" y="290" type="line"/>
    </contour>
    <contour>
      <point x="426" y="17" type="move"/>
      <point x="426" y="-19" type="line"/>
      <point x="336" y="-93"/>
      <point x="318" y="-122"/>
      <point x="318" y="-151" type="curve" smooth="yes"/>
      <point x="318" y="-187"/>
      <point x="360" y="-214"/>
      <point x="442" y="-214" type="curve"/>
    </contour>
  </outline>
</glyph>
<glyph name="eogonek" format="1">
  <advance width="483.0"/>
  <unicode hex="0119"/>
  <outline>
    <contour>
      <point x="91" y="198" type="move"/>
      <point x="311" y="198" type="line" smooth="yes"/>
      <point x="374" y="198"/>
      <point x="397" y="224"/>
      <point x="397" y="263" type="curve" smooth="yes"/>
      <point x="397" y="314"/>
      <point x="341" y="379"/>
      <point x="254" y="379" type="curve" smooth="yes"/>
      <point x="156" y="379"/>
      <point x="78" y="304"/>
      <point x="78" y="194" type="curve" smooth="yes"/>
      <point x="78" y="81"/>
      <point x="159" y="20"/>
      <point x="275" y="20" type="curve" smooth="yes"/>
      <point x="313" y="20"/>
      <point x="350" y="28"/>
      <point x="377" y="39" type="curve"/>
      <point x="377" y="39"/>
    </contour>
    <contour>
      <point x="377" y="26" type="move"/>
      <point x="377" y="-11" type="line"/>
      <point x="287" y="-84"/>
      <point x="269" y="-114"/>
      <point x="269" y="-142" type="curve" smooth="yes"/>
      <point x="269" y="-179"/>
      <point x="311" y="-205"/>
      <point x="393" y="-205" type="curve"/>
    </contour>
  </outline>
</glyph>
<glyph name="Imacron" format="1">
  <advance width="269"/>
  <unicode hex="012A"/>
  <outline>
    <contour>
      <point x="134" y="516" type="move"/>
      <point x="134" y="6" type="line"/>
    </contour>
    <contour>
      <point x="232" y="701" type="move"/>
      <point x="38" y="701" type="line"/>
    </contour>
  </outline>
</glyph>
<glyph name="imacron" format="1">
  <advance width="217"/>
  <unicode hex="012B"/>
  <outline>
    <contour>
      <point x="108" y="10" type="move"/>
      <point x="108" y="369" type="line"/>
    </contour>
    <contour>
      <point x="182" y="550" type="move"/>
      <point x="35" y="550" type="line"/>
    </contour>
  </outline>
</glyph>
<glyph name="Iogonek" format="1">
  <advance width="269"/>
  <unicode hex="012E"/>
  <outline>
    <contour>
      <point x="134" y="526" type="move"/>
      <point x="134" y="16" type="line"/>
    </contour>
    <contour>
      <point x="134" y="16" type="move"/>
      <point x="134" y="-20" type="line"/>
      <point x="44" y="-94"/>
      <point x="26" y="-123"/>
      <point x="26" y="-152" type="curve" smooth="yes"/>
      <point x="26" y="-188"/>
      <point x="68" y="-215"/>
      <point x="150" y="-215" type="curve"/>
    </contour>
  </outline>
</glyph>
<glyph name="iogonek" format="1">
  <advance width="217"/>
  <unicode hex="012F"/>
  <outline>
    <contour>
      <point x="122" y="15" type="move"/>
      <point x="122" y="374" type="line"/>
    </contour>
    <contour>
      <point x="122" y="592" type="curve" smooth="yes"/>
      <point x="109" y="592"/>
      <point x="103" y="579"/>
      <point x="103" y="565" type="curve" smooth="yes"/>
      <point x="103" y="551"/>
      <point x="110" y="540"/>
      <point x="123" y="540" type="curve" smooth="yes"/>
      <point x="134" y="540"/>
      <point x="141" y="551"/>
      <point x="141" y="565" type="curve" smooth="yes"/>
      <point x="141" y="579"/>
      <point x="134" y="592"/>
    </contour>
    <contour>
      <point x="122" y="14" type="move"/>
      <point x="122" y="-23" type="line"/>
      <point x="32" y="-97"/>
      <point x="14" y="-126"/>
      <point x="14" y="-154" type="curve" smooth="yes"/>
      <point x="14" y="-191"/>
      <point x="56" y="-217"/>
      <point x="138" y="-217" type="curve"/>
    </contour>
  </outline>
</glyph>
<glyph name="Idotaccent" format="1">
  <advance width="269"/>
  <unicode hex="0130"/>
  <outline>
    <contour>
      <point x="134" y="515" type="move"/>
      <point x="134" y="6" type="line"/>
    </contour>
    <contour>
      <point x="135" y="732" type="curve" smooth="yes"/>
      <point x="122" y="732"/>
      <point x="113" y="718"/>
      <point x="113" y="703" type="curve" smooth="yes"/>
      <point x="113" y="689"/>
      <point x="122" y="677"/>
      <point x="135" y="677" type="curve" smooth="yes"/>
      <point x="147" y="677"/>
      <point x="154" y="689"/>
      <point x="154" y="703" type="curve" smooth="yes"/>
      <point x="154" y="718"/>
      <point x="147" y="732"/>
    </contour>
  </outline>
</glyph>
<glyph name="lacute" format="1">
  <advance width="244"/>
  <unicode hex="013A"/>
  <outline>
    <contour>
      <point x="122" y="5" type="move"/>
      <point x="122" y="542" type="line"/>
    </contour>
    <contour>
      <point x="203" y="760" type="move"/>
      <point x="173" y="727"/>
      <point x="145" y="694"/>
      <point x="118" y="661" type="curve"/>
    </contour>
  </outline>
</glyph>
<glyph name="uni013B" format="1">
  <advance width="492"/>
  <unicode hex="013B"/>
  <outline>
    <contour>
      <point x="129" y="527" type="move"/>
      <point x="129" y="17" type="line"/>
    </contour>
    <contour>
      <point x="138" y="17" type="move"/>
      <point x="414" y="17" type="line"/>
    </contour>
    <contour>
      <point x="277" y="-116" type="move"/>
      <point x="284" y="-128"/>
      <point x="287" y="-141"/>
      <point x="287" y="-155" type="curve" smooth="yes"/>
      <point x="287" y="-195"/>
      <point x="255" y="-230"/>
      <point x="206" y="-254" type="curve"/>
    </contour>
  </outline>
</glyph>
<glyph name="uni013C" format="1">
  <advance width="244"/>
  <unicode hex="013C"/>
  <outline>
    <contour>
      <point x="122" y="17" type="move"/>
      <point x="122" y="553" type="line"/>
    </contour>
    <contour>
      <point x="121" y="-117" type="move"/>
      <point x="127" y="-128"/>
      <point x="130" y="-142"/>
      <point x="130" y="-156" type="curve" smooth="yes"/>
      <point x="130" y="-195"/>
      <point x="99" y="-231"/>
      <point x="49" y="-254" type="curve"/>
    </contour>
  </outline>
</glyph>
<glyph name="Lslash" format="1">
  <advance width="498"/>
  <unicode hex="0141"/>
  <outline>
    <contour>
      <point x="291" y="349" type="move"/>
      <point x="65" y="200" type="line"/>
    </contour>
    <contour>
      <point x="145" y="520" type="move"/>
      <point x="145" y="11" type="line"/>
    </contour>
    <contour>
      <point x="153" y="11" type="move"/>
      <point x="429" y="11" type="line"/>
    </contour>
  </outline>
</glyph>
<glyph name="nacute" format="1">
  <advance width="522"/>
  <unicode hex="0144"/>
  <outline>
    <contour>
      <point x="116" y="9" type="move"/>
      <point x="116" y="368" type="line"/>
    </contour>
    <contour>
      <point x="417" y="9" type="move"/>
      <point x="417" y="219" type="line" smooth="yes"/>
      <point x="417" y="329"/>
      <point x="366" y="368"/>
      <point x="299" y="368" type="curve" smooth="yes"/>
      <point x="233" y="368"/>
      <point x="170" y="327"/>
      <point x="120" y="276" type="curve"/>
    </contour>
    <contour>
      <point x="347" y="611" type="move"/>
      <point x="317" y="579"/>
      <point x="289" y="545"/>
      <point x="261" y="513" type="curve"/>
    </contour>
  </outline>
</glyph>
<glyph name="Ncaron" format="1">
  <advance width="667"/>
  <unicode hex="0147"/>
  <outline>
    <contour>
      <point x="129" y="515" type="move"/>
      <point x="129" y="6" type="line"/>
    </contour>
    <contour>
      <point x="538" y="515" type="move"/>
      <point x="538" y="6" type="line"/>
    </contour>
    <contour>
      <point x="135" y="515" type="move"/>
      <point x="214" y="410"/>
      <point x="419" y="156"/>
      <point x="531" y="6" type="curve"/>
    </contour>
    <contour>
      <point x="334" y="648" type="move"/>
      <point x="369" y="673"/>
      <point x="405" y="698"/>
      <point x="435" y="720" type="curve"/>
    </contour>
    <contour>
      <point x="226" y="720" type="move"/>
      <point x="255" y="698"/>
      <point x="291" y="673"/>
      <point x="327" y="648" type="curve"/>
    </contour>
  </outline>
</glyph>
<glyph name="Ohungarumlaut" format="1">
  <advance width="672.0"/>
  <unicode hex="0150"/>
  <outline>
    <contour>
      <point x="338" y="524" type="curve" smooth="yes"/>
      <point x="190" y="524"/>
      <point x="90" y="415"/>
      <point x="90" y="256" type="curve" smooth="yes"/>
      <point x="90" y="111"/>
      <point x="192" y="-4"/>
      <point x="338" y="-4" type="curve" smooth="yes"/>
      <point x="492" y="-4"/>
      <point x="582" y="111"/>
      <point x="582" y="259" type="curve" smooth="yes"/>
      <point x="582" y="415"/>
      <point x="474" y="524"/>
    </contour>
    <contour>
      <point x="273" y="757" type="move"/>
      <point x="250" y="720"/>
      <point x="234" y="689"/>
      <point x="222" y="657" type="curve"/>
    </contour>
    <contour>
      <point x="488" y="757" type="move"/>
      <point x="465" y="720"/>
      <point x="449" y="689"/>
      <point x="437" y="657" type="curve"/>
    </contour>
  </outline>
</glyph>
<glyph name="ohungarumlaut" format="1">
  <advance width="520"/>
  <unicode hex="0151"/>
  <outline>
    <contour>
      <point x="259" y="372" type="curve" smooth="yes"/>
      <point x="146" y="372"/>
      <point x="77" y="287"/>
      <point x="77" y="185" type="curve" smooth="yes"/>
      <point x="77" y="83"/>
      <point x="148" y="5"/>
      <point x="259" y="5" type="curve" smooth="yes"/>
      <point x="371" y="5"/>
      <point x="442" y="82"/>
      <point x="442" y="183" type="curve" smooth="yes"/>
      <point x="442" y="287"/>
      <point x="372" y="372"/>
    </contour>
    <contour>
      <point x="212" y="604" type="move"/>
      <point x="189" y="568"/>
      <point x="173" y="536"/>
      <point x="161" y="505" type="curve"/>
    </contour>
    <contour>
      <point x="385" y="604" type="move"/>
      <point x="362" y="568"/>
      <point x="347" y="536"/>
      <point x="334" y="505" type="curve"/>
    </contour>
  </outline>
</glyph>
<glyph name="oe" format="1">
  <advance width="847"/>
  <unicode hex="0153"/>
  <outline>
    <contour>
      <point x="259" y="378" type="curve" smooth="yes"/>
      <point x="146" y="378"/>
      <point x="77" y="293"/>
      <point x="77" y="191" type="curve" smooth="yes"/>
      <point x="77" y="89"/>
      <point x="148" y="10"/>
      <point x="259" y="10" type="curve" smooth="yes"/>
      <point x="371" y="10"/>
      <point x="442" y="88"/>
      <point x="442" y="189" type="curve" smooth="yes"/>
      <point x="442" y="293"/>
      <point x="372" y="378"/>
    </contour>
    <contour>
      <point x="454" y="193" type="move"/>
      <point x="673" y="193" type="line" smooth="yes"/>
      <point x="736" y="193"/>
      <point x="759" y="218"/>
      <point x="759" y="258" type="curve" smooth="yes"/>
      <point x="759" y="308"/>
      <point x="704" y="374"/>
      <point x="616" y="374" type="curve" smooth="yes"/>
      <point x="519" y="374"/>
      <point x="440" y="299"/>
      <point x="440" y="189" type="curve" smooth="yes"/>
      <point x="440" y="75"/>
      <point x="521" y="14"/>
      <point x="637" y="14" type="curve" smooth="yes"/>
      <point x="675" y="14"/>
      <point x="712" y="23"/>
      <point x="739" y="33" type="curve"/>
      <point x="739" y="33"/>
    </contour>
  </outline>
</glyph>
<glyph name="racute" format="1">
  <advance width="363"/>
  <unicode hex="0155"/>
  <outline>
    <contour>
      <point x="116" y="9" type="move"/>
      <point x="116" y="368" type="line"/>
    </contour>
    <contour>
      <point x="117" y="230" type="move"/>
      <point x="166" y="307"/>
      <point x="225" y="356"/>
      <point x="317" y="368" type="curve"/>
    </contour>
    <contour>
      <point x="274" y="611" type="move"/>
      <point x="245" y="579"/>
      <point x="216" y="545"/>
      <point x="189" y="513" type="curve"/>
    </contour>
  </outline>
</glyph>
<glyph name="rcaron" format="1">
  <advance width="363"/>
  <unicode hex="0159"/>
  <outline>
    <contour>
      <point x="116" y="9" type="move"/>
      <point x="116" y="368" type="line"/>
    </contour>
    <contour>
      <point x="117" y="230" type="move"/>
      <point x="166" y="307"/>
      <point x="225" y="356"/>
      <point x="317" y="368" type="curve"/>
    </contour>
    <contour>
      <point x="106" y="602" type="move"/>
      <point x="133" y="575"/>
      <point x="171" y="536"/>
      <point x="196" y="511" type="curve"/>
    </contour>
    <contour>
      <point x="203" y="511" type="move"/>
      <point x="227" y="535"/>
      <point x="266" y="575"/>
      <point x="293" y="602" type="curve"/>
    </contour>
  </outline>
</glyph>
<glyph name="Sacute" format="1">
  <advance width="551"/>
  <unicode hex="015A"/>
  <outline>
    <contour>
      <point x="413" y="490" type="move"/>
      <point x="363" y="510"/>
      <point x="328" y="521"/>
      <point x="255" y="521" type="curve" smooth="yes"/>
      <point x="166" y="521"/>
      <point x="112" y="468"/>
      <point x="112" y="412" type="curve" smooth="yes"/>
      <point x="112" y="360"/>
      <point x="137" y="301"/>
      <point x="277" y="273" type="curve" smooth="yes"/>
      <point x="405" y="245"/>
      <point x="448" y="192"/>
      <point x="448" y="124" type="curve" smooth="yes"/>
      <point x="448" y="57"/>
      <point x="396" y="-4"/>
      <point x="276" y="-4" type="curve" smooth="yes"/>
      <point x="213" y="-4"/>
      <point x="153" y="11"/>
      <point x="99" y="41" type="curve"/>
    </contour>
    <contour>
      <point x="397" y="743" type="move"/>
      <point x="349" y="714"/>
      <point x="298" y="682"/>
      <point x="268" y="660" type="curve"/>
    </contour>
  </outline>
</glyph>
<glyph name="sacute" format="1">
  <advance width="473"/>
  <unicode hex="015B"/>
  <outline>
    <contour>
      <point x="353" y="355" type="move"/>
      <point x="322" y="364"/>
      <point x="282" y="371"/>
      <point x="238" y="371" type="curve" smooth="yes"/>
      <point x="141" y="371"/>
      <point x="104" y="326"/>
      <point x="104" y="283" type="curve" smooth="yes"/>
      <point x="104" y="244"/>
      <point x="135" y="209"/>
      <point x="230" y="200" type="curve" smooth="yes"/>
      <point x="272" y="196" type="line" smooth="yes"/>
      <point x="354" y="187"/>
      <point x="387" y="145"/>
      <point x="387" y="99" type="curve" smooth="yes"/>
      <point x="387" y="51"/>
      <point x="349" y="5"/>
      <point x="245" y="5" type="curve" smooth="yes"/>
      <point x="195" y="5"/>
      <point x="144" y="14"/>
      <point x="98" y="34" type="curve"/>
    </contour>
    <contour>
      <point x="318" y="611" type="move"/>
      <point x="289" y="579"/>
      <point x="260" y="545"/>
      <point x="233" y="513" type="curve"/>
    </contour>
  </outline>
</glyph>
<glyph name="uni015E" format="1">
  <advance width="551"/>
  <unicode hex="015E"/>
  <outline>
    <contour>
      <point x="413" y="501" type="move"/>
      <point x="363" y="521"/>
      <point x="328" y="533"/>
      <point x="255" y="533" type="curve" smooth="yes"/>
      <point x="166" y="533"/>
      <point x="112" y="479"/>
      <point x="112" y="424" type="curve" smooth="yes"/>
      <point x="112" y="371"/>
      <point x="137" y="312"/>
      <point x="277" y="285" type="curve" smooth="yes"/>
      <point x="405" y="257"/>
      <point x="448" y="203"/>
      <point x="448" y="136" type="curve" smooth="yes"/>
      <point x="448" y="69"/>
      <point x="396" y="8"/>
      <point x="276" y="8" type="curve" smooth="yes"/>
      <point x="213" y="8"/>
      <point x="153" y="22"/>
      <point x="99" y="53" type="curve"/>
    </contour>
    <contour>
      <point x="276" y="-119" type="move"/>
      <point x="282" y="-131"/>
      <point x="286" y="-144"/>
      <point x="286" y="-158" type="curve" smooth="yes"/>
      <point x="286" y="-198"/>
      <point x="254" y="-234"/>
      <point x="205" y="-257" type="curve"/>
    </contour>
  </outline>
</glyph>
<glyph name="Scaron" format="1">
  <advance width="551"/>
  <unicode hex="0160"/>
  <outline>
    <contour>
      <point x="413" y="490" type="move"/>
      <point x="363" y="510"/>
      <point x="328" y="521"/>
      <point x="255" y="521" type="curve" smooth="yes"/>
      <point x="166" y="521"/>
      <point x="112" y="468"/>
      <point x="112" y="412" type="curve" smooth="yes"/>
      <point x="112" y="360"/>
      <point x="137" y="301"/>
      <point x="277" y="273" type="curve" smooth="yes"/>
      <point x="405" y="245"/>
      <point x="448" y="192"/>
      <point x="448" y="124" type="curve" smooth="yes"/>
      <point x="448" y="57"/>
      <point x="396" y="-4"/>
      <point x="276" y="-4" type="curve" smooth="yes"/>
      <point x="213" y="-4"/>
      <point x="153" y="11"/>
      <point x="99" y="41" type="curve"/>
    </contour>
    <contour>
      <point x="271" y="668" type="move"/>
      <point x="306" y="693"/>
      <point x="342" y="719"/>
      <point x="372" y="741" type="curve"/>
    </contour>
    <contour>
      <point x="163" y="741" type="move"/>
      <point x="192" y="719"/>
      <point x="228" y="693"/>
      <point x="264" y="668" type="curve"/>
    </contour>
  </outline>
</glyph>
<glyph name="scaron" format="1">
  <advance width="473"/>
  <unicode hex="0161"/>
  <outline>
    <contour>
      <point x="353" y="355" type="move"/>
      <point x="322" y="364"/>
      <point x="282" y="371"/>
      <point x="238" y="371" type="curve" smooth="yes"/>
      <point x="141" y="371"/>
      <point x="104" y="326"/>
      <point x="104" y="283" type="curve" smooth="yes"/>
      <point x="104" y="244"/>
      <point x="135" y="210"/>
      <point x="230" y="200" type="curve" smooth="yes"/>
      <point x="272" y="196" type="line" smooth="yes"/>
      <point x="354" y="187"/>
      <point x="387" y="145"/>
      <point x="387" y="99" type="curve" smooth="yes"/>
      <point x="387" y="51"/>
      <point x="349" y="5"/>
      <point x="245" y="5" type="curve" smooth="yes"/>
      <point x="195" y="5"/>
      <point x="144" y="14"/>
      <point x="98" y="34" type="curve"/>
    </contour>
    <contour>
      <point x="134" y="602" type="move"/>
      <point x="162" y="575"/>
      <point x="200" y="536"/>
      <point x="225" y="511" type="curve"/>
    </contour>
    <contour>
      <point x="231" y="511" type="move"/>
      <point x="255" y="535"/>
      <point x="294" y="575"/>
      <point x="321" y="602" type="curve"/>
    </contour>
  </outline>
</glyph>
<glyph name="tcaron" format="1">
  <advance width="372"/>
  <unicode hex="0165"/>
  <outline>
    <contour>
      <point x="315" y="643" type="move"/>
      <point x="292" y="510" type="line"/>
    </contour>
    <contour>
      <point x="141" y="499" type="move"/>
      <point x="141" y="131" type="line" smooth="yes"/>
      <point x="141" y="53"/>
      <point x="187" y="10"/>
      <point x="293" y="8" type="curve"/>
    </contour>
    <contour>
      <point x="48" y="367" type="move"/>
      <point x="307" y="367" type="line"/>
    </contour>
  </outline>
</glyph>
<glyph name="umacron" format="1">
  <advance width="522"/>
  <unicode hex="016B"/>
  <outline>
    <contour>
      <point x="406" y="369" type="move"/>
      <point x="406" y="10" type="line"/>
    </contour>
    <contour>
      <point x="105" y="369" type="move"/>
      <point x="105" y="159" type="line" smooth="yes"/>
      <point x="105" y="49"/>
      <point x="155" y="10"/>
      <point x="223" y="10" type="curve" smooth="yes"/>
      <point x="289" y="10"/>
      <point x="358" y="62"/>
      <point x="402" y="123" type="curve"/>
    </contour>
    <contour>
      <point x="352" y="550" type="move"/>
      <point x="141" y="550" type="line"/>
    </contour>
  </outline>
</glyph>
<glyph name="Uring" format="1">
  <advance width="647"/>
  <unicode hex="016E"/>
  <outline>
    <contour>
      <point x="117" y="516" type="move"/>
      <point x="117" y="205" type="line" smooth="yes"/>
      <point x="117" y="72"/>
      <point x="201" y="-3"/>
      <point x="321" y="-3" type="curve" smooth="yes"/>
      <point x="455" y="-3"/>
      <point x="530" y="72"/>
      <point x="530" y="208" type="curve" smooth="yes"/>
      <point x="530" y="516" type="line"/>
    </contour>
    <contour>
      <point x="414" y="629" type="curve" smooth="yes"/>
      <point x="414" y="672"/>
      <point x="379" y="711"/>
      <point x="322" y="711" type="curve" smooth="yes"/>
      <point x="268" y="711"/>
      <point x="234" y="669"/>
      <point x="234" y="629" type="curve" smooth="yes"/>
      <point x="234" y="589"/>
      <point x="268" y="547"/>
      <point x="322" y="547" type="curve" smooth="yes"/>
      <point x="379" y="547"/>
      <point x="414" y="586"/>
    </contour>
  </outline>
</glyph>
<glyph name="uogonek" format="1">
  <advance width="522"/>
  <unicode hex="0173"/>
  <outline>
    <contour>
      <point x="406" y="379" type="move"/>
      <point x="406" y="20" type="line"/>
    </contour>
    <contour>
      <point x="105" y="379" type="move"/>
      <point x="105" y="169" type="line" smooth="yes"/>
      <point x="105" y="59"/>
      <point x="155" y="20"/>
      <point x="223" y="20" type="curve" smooth="yes"/>
      <point x="289" y="20"/>
      <point x="358" y="71"/>
      <point x="402" y="132" type="curve"/>
    </contour>
    <contour>
      <point x="406" y="21" type="move"/>
      <point x="406" y="-16" type="line"/>
      <point x="316" y="-89"/>
      <point x="298" y="-119"/>
      <point x="298" y="-147" type="curve" smooth="yes"/>
      <point x="298" y="-184"/>
      <point x="340" y="-210"/>
      <point x="422" y="-210" type="curve"/>
    </contour>
  </outline>
</glyph>
<glyph name="Zacute" format="1">
  <advance width="591"/>
  <unicode hex="0179"/>
  <outline>
    <contour>
      <point x="485" y="515" type="move"/>
      <point x="419" y="415"/>
      <point x="153" y="100"/>
      <point x="98" y="14" type="curve"/>
    </contour>
    <contour>
      <point x="107" y="515" type="move"/>
      <point x="474" y="515" type="line"/>
    </contour>
    <contour>
      <point x="93" y="5" type="move"/>
      <point x="498" y="5" type="line"/>
    </contour>
    <contour>
      <point x="433" y="743" type="move"/>
      <point x="384" y="714"/>
      <point x="334" y="682"/>
      <point x="303" y="660" type="curve"/>
    </contour>
  </outline>
</glyph>
<glyph name="Zdotaccent" format="1">
  <advance width="591"/>
  <unicode hex="017B"/>
  <outline>
    <contour>
      <point x="485" y="515" type="move"/>
      <point x="419" y="415"/>
      <point x="153" y="100"/>
      <point x="98" y="14" type="curve"/>
    </contour>
    <contour>
      <point x="107" y="515" type="move"/>
      <point x="474" y="515" type="line"/>
    </contour>
    <contour>
      <point x="93" y="6" type="move"/>
      <point x="498" y="6" type="line"/>
    </contour>
    <contour>
      <point x="299" y="732" type="curve" smooth="yes"/>
      <point x="286" y="732"/>
      <point x="277" y="718"/>
      <point x="277" y="703" type="curve" smooth="yes"/>
      <point x="277" y="689"/>
      <point x="286" y="677"/>
      <point x="299" y="677" type="curve" smooth="yes"/>
      <point x="311" y="677"/>
      <point x="318" y="689"/>
      <point x="318" y="703" type="curve" smooth="yes"/>
      <point x="318" y="718"/>
      <point x="311" y="732"/>
    </contour>
  </outline>
</glyph>
<glyph name="florin" format="1">
  <advance width="349"/>
  <unicode hex="0192"/>
  <outline>
    <contour>
      <point x="329" y="577" type="move"/>
      <point x="230" y="571"/>
      <point x="193" y="521"/>
      <point x="186" y="449" type="curve" smooth="yes"/>
      <point x="128" y="-149" type="line"/>
    </contour>
    <contour>
      <point x="72" y="373" type="move"/>
      <point x="310" y="373" type="line"/>
    </contour>
  </outline>
</glyph>
<glyph name="ogonek" format="1">
  <advance width="515"/>
  <unicode hex="02DB"/>
  <outline>
    <contour>
      <point x="281" y="24" type="move"/>
      <point x="281" y="-12" type="line"/>
      <point x="191" y="-86"/>
      <point x="173" y="-115"/>
      <point x="173" y="-144" type="curve" smooth="yes"/>
      <point x="173" y="-180"/>
      <point x="215" y="-207"/>
      <point x="297" y="-207" type="curve"/>
    </contour>
  </outline>
</glyph>
<glyph name="tilde" format="1">
  <advance width="515"/>
  <unicode hex="02DC"/>
  <outline>
    <contour>
      <point x="142" y="519" type="move"/>
      <point x="162" y="548"/>
      <point x="184" y="569"/>
      <point x="205" y="569" type="curve" smooth="yes"/>
      <point x="224" y="569"/>
      <point x="236" y="559"/>
      <point x="259" y="541" type="curve" smooth="yes"/>
      <point x="280" y="525"/>
      <point x="296" y="515"/>
      <point x="314" y="515" type="curve" smooth="yes"/>
      <point x="336" y="515"/>
      <point x="353" y="534"/>
      <point x="374" y="565" type="curve"/>
    </contour>
  </outline>
</glyph>
<glyph name="quoteleft" format="1">
  <advance width="257"/>
  <unicode hex="2018"/>
  <outline>
    <contour>
      <point x="164" y="388" type="move" smooth="yes"/>
      <point x="137" y="424"/>
      <point x="121" y="473"/>
      <point x="121" y="521" type="curve" smooth="yes"/>
      <point x="121" y="541"/>
      <point x="123" y="560"/>
      <point x="127" y="572" type="curve"/>
    </contour>
  </outline>
</glyph>
<glyph name="quotesinglbase" format="1">
  <advance width="257"/>
  <unicode hex="201A"/>
  <outline>
    <contour>
      <point x="130" y="79" type="move"/>
      <point x="134" y="67"/>
      <point x="137" y="48"/>
      <point x="137" y="28" type="curve" smooth="yes"/>
      <point x="137" y="-20"/>
      <point x="121" y="-69"/>
      <point x="93" y="-105" type="curve" smooth="yes"/>
    </contour>
  </outline>
</glyph>
<glyph name="quotedblbase" format="1">
  <advance width="426"/>
  <unicode hex="201E"/>
  <outline>
    <contour>
      <point x="299" y="81" type="move"/>
      <point x="303" y="65"/>
      <point x="306" y="47"/>
      <point x="306" y="22" type="curve" smooth="yes"/>
      <point x="306" y="-19"/>
      <point x="289" y="-67"/>
      <point x="261" y="-102" type="curve" smooth="yes"/>
    </contour>
    <contour>
      <point x="131" y="81" type="move"/>
      <point x="135" y="65"/>
      <point x="138" y="47"/>
      <point x="138" y="22" type="curve" smooth="yes"/>
      <point x="138" y="-19"/>
      <point x="121" y="-67"/>
      <point x="93" y="-102" type="curve" smooth="yes"/>
    </contour>
  </outline>
</glyph>
<glyph name="perthousand" format="1">
  <advance width="1190"/>
  <unicode hex="2030"/>
  <outline>
    <contour>
      <point x="978" y="286" type="curve" smooth="yes"/>
      <point x="910" y="286"/>
      <point x="863" y="226"/>
      <point x="863" y="142" type="curve" smooth="yes"/>
      <point x="863" y="66"/>
      <point x="911" y="0"/>
      <point x="978" y="0" type="curve" smooth="yes"/>
      <point x="1050" y="0"/>
      <point x="1091" y="66"/>
      <point x="1091" y="143" type="curve" smooth="yes"/>
      <point x="1091" y="226"/>
      <point x="1041" y="286"/>
    </contour>
    <contour>
      <point x="578" y="520" type="move"/>
      <point x="280" y="11" type="line"/>
    </contour>
    <contour>
      <point x="213" y="528" type="curve" smooth="yes"/>
      <point x="146" y="528"/>
      <point x="99" y="468"/>
      <point x="99" y="384" type="curve" smooth="yes"/>
      <point x="99" y="307"/>
      <point x="147" y="242"/>
      <point x="213" y="242" type="curve" smooth="yes"/>
      <point x="286" y="242"/>
      <point x="327" y="307"/>
      <point x="327" y="385" type="curve" smooth="yes"/>
      <point x="327" y="468"/>
      <point x="276" y="528"/>
    </contour>
    <contour>
      <point x="643" y="286" type="curve" smooth="yes"/>
      <point x="575" y="286"/>
      <point x="528" y="226"/>
      <point x="528" y="142" type="curve" smooth="yes"/>
      <point x="528" y="66"/>
      <point x="576" y="0"/>
      <point x="643" y="0" type="curve" smooth="yes"/>
      <point x="715" y="0"/>
      <point x="756" y="66"/>
      <point x="756" y="143" type="curve" smooth="yes"/>
      <point x="756" y="226"/>
      <point x="706" y="286"/>
    </contour>
  </outline>
</glyph>
<glyph name="fraction" format="1">
  <advance width="477"/>
  <unicode hex="2044"/>
  <outline>
    <contour>
      <point x="390" y="520" type="move"/>
      <point x="92" y="11" type="line"/>
    </contour>
  </outline>
</glyph>
<glyph name="Euro" format="1">
  <advance width="625"/>
  <unicode hex="20AC"/>
  <outline>
    <contour>
      <point x="79" y="342" type="move"/>
      <point x="444" y="342" type="line"/>
    </contour>
    <contour>
      <point x="79" y="184" type="move"/>
      <point x="444" y="184" type="line"/>
    </contour>
    <contour>
      <point x="533" y="499" type="move"/>
      <point x="501" y="518"/>
      <point x="452" y="530"/>
      <point x="399" y="530" type="curve" smooth="yes"/>
      <point x="257" y="530"/>
      <point x="154" y="422"/>
      <point x="154" y="262" type="curve" smooth="yes"/>
      <point x="154" y="115"/>
      <point x="235" y="1"/>
      <point x="404" y="1" type="curve" smooth="yes"/>
      <point x="456" y="1"/>
      <point x="502" y="13"/>
      <point x="538" y="33" type="curve"/>
    </contour>
  </outline>
</glyph>
<glyph name="infinity" format="1">
  <advance width="758"/>
  <unicode hex="221E"/>
  <outline>
    <contour>
      <point x="389" y="256" type="curve" smooth="yes"/>
      <point x="322" y="350"/>
      <point x="280" y="400"/>
      <point x="212" y="400" type="curve" smooth="yes"/>
      <point x="151" y="400"/>
      <point x="97" y="352"/>
      <point x="97" y="269" type="curve" smooth="yes"/>
      <point x="97" y="190"/>
      <point x="149" y="140"/>
      <point x="217" y="140" type="curve" smooth="yes"/>
      <point x="282" y="140"/>
      <point x="335" y="187"/>
      <point x="378" y="262" type="curve" smooth="yes"/>
      <point x="423" y="340"/>
      <point x="469" y="399"/>
      <point x="539" y="399" type="curve" smooth="yes"/>
      <point x="596" y="399"/>
      <point x="662" y="352"/>
      <point x="662" y="267" type="curve" smooth="yes"/>
      <point x="662" y="187"/>
      <point x="608" y="139"/>
      <point x="544" y="139" type="curve" smooth="yes"/>
      <point x="485" y="139"/>
      <point x="440" y="183"/>
    </contour>
  </outline>
</glyph>
<glyph name="integral" format="1">
  <advance width="334"/>
  <unicode hex="222B"/>
  <outline>
    <contour>
      <point x="284" y="578" type="move"/>
      <point x="174" y="572"/>
      <point x="141" y="523"/>
      <point x="141" y="450" type="curve" smooth="yes"/>
      <point x="141" y="14" type="line"/>
    </contour>
    <contour>
      <point x="-2" y="-175" type="move"/>
      <point x="107" y="-169"/>
      <point x="141" y="-120"/>
      <point x="141" y="-47" type="curve" smooth="yes"/>
      <point x="141" y="389" type="line"/>
    </contour>
  </outline>
</glyph>
<glyph name="notequal" format="1">
  <advance width="557"/>
  <unicode hex="2260"/>
  <outline>
    <contour>
      <point x="371" y="499" type="move"/>
      <point x="192" y="22" type="line"/>
    </contour>
    <contour>
      <point x="101" y="362" type="move"/>
      <point x="455" y="362" type="line"/>
    </contour>
    <contour>
      <point x="101" y="154" type="move"/>
      <point x="455" y="154" type="line"/>
    </contour>
  </outline>
</glyph>
<glyph name="brevecmb" format="1">
  <advance width="0.0"/>
  <outline>
    <contour>
      <point x="-119" y="579" type="move"/>
      <point x="-93" y="541"/>
      <point x="-56" y="514"/>
      <point x="-12" y="514" type="curve" smooth="yes"/>
      <point x="38" y="514"/>
      <point x="68" y="540"/>
      <point x="92" y="579" type="curve"/>
    </contour>
  </outline>
</glyph>
<glyph name="cedillacmb" format="1">
  <advance width="0"/>
  <outline>
    <contour>
      <point x="-4" y="-121" type="move"/>
      <point x="-33" y="-148"/>
      <point x="-86" y="-201"/>
      <point x="-110" y="-226" type="curve"/>
    </contour>
  </outline>
</glyph>
<glyph name="dieresiscmb.cap" format="1">
  <advance width="0.0"/>
  <outline>
    <contour>
      <point x="-108" y="707" type="curve" smooth="yes"/>
      <point x="-120" y="707"/>
      <point x="-127" y="694"/>
      <point x="-127" y="680" type="curve" smooth="yes"/>
      <point x="-127" y="665"/>
      <point x="-120" y="653"/>
      <point x="-108" y="653" type="curve" smooth="yes"/>
      <point x="-98" y="653"/>
      <point x="-91" y="665"/>
      <point x="-91" y="680" type="curve" smooth="yes"/>
      <point x="-91" y="694"/>
      <point x="-98" y="707"/>
    </contour>
    <contour>
      <point x="95" y="707" type="curve" smooth="yes"/>
      <point x="83" y="707"/>
      <point x="77" y="694"/>
      <point x="77" y="680" type="curve" smooth="yes"/>
      <point x="77" y="665"/>
      <point x="83" y="653"/>
      <point x="95" y="653" type="curve" smooth="yes"/>
      <point x="105" y="653"/>
      <point x="111" y="665"/>
      <point x="111" y="680" type="curve" smooth="yes"/>
      <point x="111" y="694"/>
      <point x="105" y="707"/>
    </contour>
  </outline>
</glyph>
<glyph name="dieresiscmb" format="1">
  <advance width="0.0"/>
  <outline>
    <contour>
      <point x="-106" y="568" type="curve" smooth="yes"/>
      <point x="-118" y="568"/>
      <point x="-124" y="555"/>
      <point x="-124" y="541" type="curve" smooth="yes"/>
      <point x="-124" y="527"/>
      <point x="-118" y="516"/>
      <point x="-106" y="516" type="curve" smooth="yes"/>
      <point x="-96" y="516"/>
      <point x="-89" y="527"/>
      <point x="-89" y="541" type="curve" smooth="yes"/>
      <point x="-89" y="555"/>
      <point x="-96" y="568"/>
    </contour>
    <contour>
      <point x="81" y="568" type="curve" smooth="yes"/>
      <point x="69" y="568"/>
      <point x="63" y="555"/>
      <point x="63" y="541" type="curve" smooth="yes"/>
      <point x="63" y="527"/>
      <point x="69" y="516"/>
      <point x="81" y="516" type="curve" smooth="yes"/>
      <point x="91" y="516"/>
      <point x="98" y="527"/>
      <point x="98" y="541" type="curve" smooth="yes"/>
      <point x="98" y="555"/>
      <point x="91" y="568"/>
    </contour>
  </outline>
</glyph>
<glyph name="gravecmb" format="1">
  <advance width="0.0"/>
  <outline>
    <contour>
      <point x="-81" y="598" type="move"/>
      <point x="-53" y="562"/>
      <point x="-35" y="540"/>
      <point x="-8" y="499" type="curve"/>
    </contour>
  </outline>
</glyph>
<glyph name="hungarumlautcmb" format="1">
  <advance width="0.0"/>
  <outline>
    <contour>
      <point x="-50" y="592" type="move"/>
      <point x="-74" y="556"/>
      <point x="-89" y="524"/>
      <point x="-102" y="493" type="curve"/>
    </contour>
    <contour>
      <point x="123" y="592" type="move"/>
      <point x="100" y="556"/>
      <point x="84" y="524"/>
      <point x="71" y="493" type="curve"/>
    </contour>
  </outline>
</glyph>
<glyph name="tildecmb" format="1">
  <advance width="0"/>
  <outline>
    <contour>
      <point x="-126" y="519" type="move"/>
      <point x="-106" y="548"/>
      <point x="-84" y="569"/>
      <point x="-63" y="569" type="curve" smooth="yes"/>
      <point x="-44" y="569"/>
      <point x="-31" y="559"/>
      <point x="-8" y="541" type="curve" smooth="yes"/>
      <point x="13" y="525"/>
      <point x="28" y="515"/>
      <point x="46" y="515" type="curve" smooth="yes"/>
      <point x="68" y="515"/>
      <point x="85" y="534"/>
      <point x="106" y="565" type="curve"/>
    </contour>
  </outline>
</glyph>
<glyph name="uni0137" format="1">
  <advance width="497"/>
  <outline>
    <contour>
      <point x="116" y="16" type="move"/>
      <point x="116" y="553" type="line"/>
    </contour>
    <contour>
      <point x="246" y="253" type="move"/>
      <point x="415" y="16" type="line"/>
    </contour>
    <contour>
      <point x="401" y="375" type="move"/>
      <point x="118" y="153" type="line"/>
    </contour>
    <contour>
      <point x="255" y="-96" type="move"/>
      <point x="261" y="-108"/>
      <point x="265" y="-121"/>
      <point x="265" y="-135" type="curve" smooth="yes"/>
      <point x="265" y="-175"/>
      <point x="233" y="-211"/>
      <point x="184" y="-234" type="curve"/>
    </contour>
  </outline>
</glyph>
<glyph name="uni0145" format="1">
  <advance width="667"/>
  <outline>
    <contour>
      <point x="129" y="526" type="move"/>
      <point x="129" y="17" type="line"/>
    </contour>
    <contour>
      <point x="538" y="526" type="move"/>
      <point x="538" y="17" type="line"/>
    </contour>
    <contour>
      <point x="135" y="526" type="move"/>
      <point x="214" y="421"/>
      <point x="419" y="167"/>
      <point x="531" y="17" type="curve"/>
    </contour>
    <contour>
      <point x="331" y="-106" type="move"/>
      <point x="337" y="-117"/>
      <point x="340" y="-131"/>
      <point x="340" y="-145" type="curve" smooth="yes"/>
      <point x="340" y="-185"/>
      <point x="309" y="-220"/>
      <point x="259" y="-243" type="curve"/>
    </contour>
  </outline>
</glyph>
<glyph name="uni0156" format="1">
  <advance width="568"/>
  <outline>
    <contour>
      <point x="146" y="226" type="move"/>
      <point x="284" y="226" type="line" smooth="yes"/>
      <point x="400" y="226"/>
      <point x="458" y="295"/>
      <point x="458" y="376" type="curve" smooth="yes"/>
      <point x="458" y="465"/>
      <point x="389" y="527"/>
      <point x="284" y="527" type="curve" smooth="yes"/>
      <point x="129" y="527" type="line"/>
      <point x="129" y="17" type="line"/>
    </contour>
    <contour>
      <point x="314" y="220" type="move"/>
      <point x="487" y="17" type="line"/>
    </contour>
    <contour>
      <point x="284" y="-116" type="move"/>
      <point x="290" y="-128"/>
      <point x="293" y="-141"/>
      <point x="293" y="-155" type="curve" smooth="yes"/>
      <point x="293" y="-195"/>
      <point x="261" y="-230"/>
      <point x="212" y="-254" type="curve"/>
    </contour>
  </outline>
</glyph>
<glyph name="uni0162" format="1">
  <advance width="573"/>
  <outline>
    <contour>
      <point x="285" y="527" type="move"/>
      <point x="285" y="17" type="line"/>
    </contour>
    <contour>
      <point x="62" y="527" type="move"/>
      <point x="511" y="527" type="line"/>
    </contour>
    <contour>
      <point x="282" y="-116" type="move"/>
      <point x="289" y="-128"/>
      <point x="292" y="-141"/>
      <point x="292" y="-155" type="curve" smooth="yes"/>
      <point x="292" y="-195"/>
      <point x="260" y="-230"/>
      <point x="211" y="-254" type="curve"/>
    </contour>
  </outline>
</glyph>
<glyph name="uni0219" format="1">
  <advance width="473"/>
  <outline>
    <contour>
      <point x="353" y="367" type="move"/>
      <point x="322" y="375"/>
      <point x="282" y="383"/>
      <point x="238" y="383" type="curve" smooth="yes"/>
      <point x="141" y="383"/>
      <point x="104" y="338"/>
      <point x="104" y="295" type="curve" smooth="yes"/>
      <point x="104" y="256"/>
      <point x="135" y="221"/>
      <point x="230" y="212" type="curve" smooth="yes"/>
      <point x="272" y="207" type="line" smooth="yes"/>
      <point x="354" y="199"/>
      <point x="387" y="157"/>
      <point x="387" y="111" type="curve" smooth="yes"/>
      <point x="387" y="63"/>
      <point x="349" y="16"/>
      <point x="245" y="16" type="curve" smooth="yes"/>
      <point x="195" y="16"/>
      <point x="144" y="26"/>
      <point x="98" y="46" type="curve"/>
    </contour>
    <contour>
      <point x="272" y="-133" type="move"/>
      <point x="244" y="-160"/>
      <point x="190" y="-214"/>
      <point x="166" y="-238" type="curve"/>
    </contour>
  </outline>
</glyph>
<glyph name="uni2113" format="1">
  <advance width="380"/>
  <outline>
    <contour>
      <point x="56" y="108" type="move"/>
      <point x="146" y="141"/>
      <point x="196" y="169"/>
      <point x="232" y="205" type="curve" smooth="yes"/>
      <point x="264" y="236"/>
      <point x="296" y="312"/>
      <point x="296" y="382" type="curve" smooth="yes"/>
      <point x="296" y="463"/>
      <point x="273" y="547"/>
      <point x="205" y="547" type="curve" smooth="yes"/>
      <point x="133" y="547"/>
      <point x="118" y="479"/>
      <point x="118" y="397" type="curve" smooth="yes"/>
      <point x="118" y="85" type="line" smooth="yes"/>
      <point x="118" y="35"/>
      <point x="152" y="0"/>
      <point x="205" y="0" type="curve" smooth="yes"/>
      <point x="236" y="0"/>
      <point x="269" y="9"/>
      <point x="299" y="28" type="curve"/>
    </contour>
  </outline>
</glyph>
<glyph name="uni2126" format="1">
  <advance width="662"/>
  <outline>
    <contour>
      <point x="435" y="11" type="move"/>
      <point x="586" y="11" type="line"/>
    </contour>
    <contour>
      <point x="91" y="11" type="move"/>
      <point x="244" y="11" type="line"/>
    </contour>
    <contour>
      <point x="425" y="11" type="move"/>
      <point x="496" y="87"/>
      <point x="566" y="185"/>
      <point x="566" y="299" type="curve" smooth="yes"/>
      <point x="566" y="428"/>
      <point x="468" y="529"/>
      <point x="333" y="529" type="curve" smooth="yes"/>
      <point x="185" y="529"/>
      <point x="96" y="428"/>
      <point x="96" y="299" type="curve" smooth="yes"/>
      <point x="96" y="181"/>
      <point x="174" y="86"/>
      <point x="252" y="11" type="curve"/>
    </contour>
  </outline>
</glyph>
<glyph name="uni2206" format="1">
  <advance width="582"/>
  <outline>
    <contour>
      <point x="282" y="520" type="move"/>
      <point x="108" y="11" type="line"/>
    </contour>
    <contour>
      <point x="125" y="11" type="move"/>
      <point x="445" y="11" type="line"/>
    </contour>
    <contour>
      <point x="471" y="11" type="move"/>
      <point x="297" y="520" type="line"/>
    </contour>
  </outline>
</glyph>
